<svg width="103" height="20" viewBox="0 0 103 20" fill="none" xmlns="http://www.w3.org/2000/svg">
<path d="M17.305 0.477918C15.4865 0.450448 13.8724 1.9207 13.8724 4.04844V13.6298C13.8743 13.9747 13.6167 14.2806 13.2417 14.2806H10.2467C3.76574 14.2883 4.34486 5.99531 9.86133 5.98753C12.3137 5.98405 13.1709 5.98753 13.1709 5.98753V3.66399H9.7437C7.59615 3.66746 5.97031 4.48527 4.87671 5.70454C3.78308 6.92383 3.22319 8.5476 3.22406 10.1613C3.22491 11.7148 3.75477 13.3271 4.86157 14.5491C5.96838 15.771 7.65126 16.6067 9.97713 16.6067H15.6302C15.957 16.6067 16.234 16.3299 16.234 16.0071V4.30125C16.2304 3.68911 16.5479 3.19699 17.0584 3.03409H17.0585C17.5537 2.87653 18.0976 3.08174 18.4254 3.54803L18.4269 3.55011L18.4282 3.55228C19.2226 4.85405 21.2077 8.04746 23.0007 10.9261C23.8972 12.3654 24.7458 13.7262 25.3737 14.7327C25.6876 15.236 25.9464 15.6507 26.1284 15.9424C26.309 16.2318 26.4093 16.3925 26.4205 16.4107C26.5528 16.5976 26.7192 16.6678 26.8578 16.6241H26.8579L26.8581 16.6241C26.9367 16.5996 26.9986 16.5442 27.0449 16.453C27.0912 16.3618 27.1186 16.2352 27.1186 16.0831V4.30293C27.1167 3.69274 27.4323 3.19958 27.9445 3.03761C28.4367 2.87981 28.9822 3.08504 29.3068 3.5518L29.3081 3.55364L29.3092 3.55556C30.1054 4.8565 32.0913 8.04994 33.8848 10.9286C35.6772 13.8056 37.2798 16.3723 37.3049 16.4123C37.305 16.4123 37.305 16.4124 37.3051 16.4125C37.4347 16.5982 37.6116 16.6723 37.7594 16.6258C37.8395 16.6004 37.9034 16.5439 37.9511 16.4526C37.9987 16.3613 38.0272 16.2356 38.0272 16.0848V0.550468V0.549668H35.6828V9.62116C35.6828 9.62116 34.2311 7.15937 31.7563 2.91045C29.335 -1.25201 24.7656 0.468404 24.7637 4.05012V9.61948C24.7637 9.61948 23.3468 7.15593 20.8736 2.90701C19.8893 1.21669 18.5493 0.496712 17.305 0.477918ZM10.1672 0.549668C-3.30439 0.547991 -3.17659 19.7409 10.3487 19.7497H15.6335C17.9079 19.7513 19.3683 18.4024 19.3665 15.9163V11.0548C19.3665 11.0548 22.3305 15.9691 23.4937 17.8927C25.4726 21.1634 30.2613 20.5203 30.2493 16.4348V11.0582C30.2493 11.0582 33.2132 15.9707 34.378 17.8969C36.3569 21.1666 41.1459 20.5229 41.1338 16.4364V0.549668H38.793V16.0847V16.0848C38.7946 16.8189 38.3831 17.2292 37.991 17.3532L37.9908 17.3533C37.5125 17.5057 36.9922 17.3017 36.6687 16.8383L36.6676 16.8367L36.6665 16.8351C36.5996 16.7282 30.2561 6.56984 28.67 3.97453C28.5384 3.78767 28.3457 3.7109 28.1746 3.76496C27.9971 3.82184 27.8842 4.0098 27.8842 4.30261V16.0811V16.0813C27.8861 16.8184 27.4815 17.2275 27.0911 17.3532L27.0909 17.3533L27.0906 17.3533C26.6194 17.5014 26.1073 17.2978 25.7858 16.8348L25.785 16.8336L25.7843 16.8325C25.7715 16.8126 25.6691 16.6488 25.4861 16.3559C25.3031 16.0629 25.0434 15.6472 24.7287 15.143C24.0993 14.1347 23.2499 12.7728 22.353 11.3331C20.5602 8.45521 18.5792 5.26848 17.7873 3.97109C17.6559 3.78452 17.4614 3.70912 17.29 3.76336V3.76328C17.1105 3.82026 16.9965 4.00818 16.9981 4.29868V4.29893V16.007C16.9981 16.7584 16.3821 17.3706 15.6302 17.3706H9.97705C7.40499 17.3706 5.52162 16.437 4.28605 15.0674C3.05049 13.6979 2.46179 11.8966 2.46003 10.1613C2.45827 8.36078 3.08183 6.5484 4.30575 5.18331C5.52968 3.81821 7.35554 2.90345 9.74194 2.89996H9.74202H13.1709V0.549668H10.1672Z" fill="#606060"/>
<path d="M95.7659 3.37891V8.33494C96.5996 7.36028 97.5957 6.87295 98.7542 6.87295C99.3488 6.87295 99.8852 6.98329 100.363 7.20397C100.841 7.42465 101.2 7.70662 101.439 8.0499C101.684 8.39317 101.85 8.77323 101.936 9.19006C102.028 9.60689 102.074 10.2536 102.074 11.1302V16.8586H99.4898V11.7003C99.4898 10.6766 99.4408 10.0268 99.3427 9.75095C99.2446 9.4751 99.0699 9.25749 98.8186 9.09811C98.5734 8.9326 98.2638 8.84985 97.8899 8.84985C97.4608 8.84985 97.0777 8.95406 96.7405 9.16248C96.4034 9.37089 96.1551 9.68658 95.9958 10.1095C95.8425 10.5264 95.7659 11.1455 95.7659 11.9669V16.8586H93.1821V3.37891H95.7659Z" fill="#606060"/>
<path d="M91.398 7.09456V9.15421H89.6326V13.0896C89.6326 13.8865 89.6479 14.3524 89.6786 14.4872C89.7154 14.616 89.792 14.7232 89.9085 14.809C90.031 14.8949 90.1782 14.9378 90.3498 14.9378C90.5889 14.9378 90.9352 14.855 91.3888 14.6895L91.6095 16.694C91.0088 16.9515 90.3283 17.0802 89.5682 17.0802C89.1024 17.0802 88.6825 17.0036 88.3085 16.8503C87.9346 16.6909 87.6588 16.4886 87.481 16.2434C87.3094 15.9921 87.1898 15.655 87.1224 15.232C87.0672 14.9316 87.0397 14.3248 87.0397 13.4114V9.15421H85.8535V7.09456H87.0397V5.15444L89.6326 3.64648V7.09456H91.398Z" fill="#606060"/>
<path d="M81.6787 16.8586V3.37891H84.2625V16.8586H81.6787Z" fill="#606060"/>
<path d="M73.1279 10.0729L70.7833 9.6499C71.0468 8.70589 71.5005 8.00708 72.1441 7.55347C72.7877 7.09985 73.744 6.87305 75.0129 6.87305C76.1653 6.87305 77.0235 7.01097 77.5875 7.28682C78.1514 7.55653 78.5468 7.90287 78.7736 8.32584C79.0065 8.74267 79.123 9.51197 79.123 10.6337L79.0954 13.6497C79.0954 14.5078 79.1353 15.1423 79.2149 15.553C79.3008 15.9576 79.4571 16.3928 79.6839 16.8587H77.1277C77.0603 16.687 76.9775 16.4326 76.8794 16.0955C76.8365 15.9422 76.8059 15.8411 76.7875 15.7921C76.3461 16.2212 75.8741 16.543 75.3715 16.7575C74.8688 16.9721 74.3325 17.0793 73.7624 17.0793C72.7571 17.0793 71.9633 16.8066 71.3809 16.261C70.8047 15.7154 70.5166 15.0258 70.5166 14.1922C70.5166 13.6405 70.6484 13.1501 70.912 12.721C71.1756 12.2858 71.5434 11.9547 72.0154 11.7279C72.4935 11.495 73.18 11.2927 74.075 11.1211C75.2826 10.8943 76.1193 10.6828 76.5852 10.4866V10.2292C76.5852 9.73265 76.4626 9.38018 76.2174 9.17176C75.9722 8.95722 75.5094 8.84994 74.829 8.84994C74.3692 8.84994 74.0106 8.94189 73.7532 9.12579C73.4957 9.30356 73.2873 9.61925 73.1279 10.0729ZM76.5852 12.1693C76.2542 12.2796 75.7301 12.4114 75.0129 12.5647C74.2957 12.7179 73.8268 12.8681 73.6061 13.0152C73.2689 13.2543 73.1004 13.5577 73.1004 13.9255C73.1004 14.2872 73.2352 14.5998 73.5049 14.8634C73.7746 15.127 74.1179 15.2588 74.5348 15.2588C75.0006 15.2588 75.445 15.1055 75.868 14.799C76.1806 14.5661 76.386 14.281 76.4841 13.9439C76.5515 13.7232 76.5852 13.3033 76.5852 12.6842V12.1693Z" fill="#606060"/>
<path d="M66.3693 13.7508L68.9438 14.183C68.6128 15.127 68.0887 15.8472 67.3715 16.3438C66.6604 16.8341 65.7685 17.0793 64.6958 17.0793C62.9978 17.0793 61.7412 16.5246 60.9259 15.4151C60.2823 14.5262 59.9604 13.4045 59.9604 12.0498C59.9604 10.4315 60.3834 9.16563 61.2293 8.25228C62.0753 7.33279 63.1449 6.87305 64.4383 6.87305C65.8911 6.87305 67.0374 7.35424 67.8772 8.31664C68.717 9.27291 69.1185 10.741 69.0818 12.721H62.6086C62.627 13.4872 62.8354 14.0849 63.2338 14.514C63.6323 14.9369 64.1288 15.1484 64.7234 15.1484C65.128 15.1484 65.4682 15.0381 65.744 14.8174C66.0199 14.5967 66.2283 14.2412 66.3693 13.7508ZM66.5164 11.1395C66.498 10.3916 66.3049 9.8246 65.9371 9.43841C65.5693 9.0461 65.1218 8.84994 64.5947 8.84994C64.0307 8.84994 63.5648 9.05529 63.197 9.466C62.8292 9.8767 62.6484 10.4345 62.6545 11.1395H66.5164Z" fill="#606060"/>
<path d="M47.1338 16.8586V3.37891H49.8555V8.68434H55.1885V3.37891H57.9102V16.8586H55.1885V10.9647H49.8555V16.8586H47.1338Z" fill="#606060"/>
</svg>
