<svg width="83" height="23" viewBox="0 0 83 23" fill="none" xmlns="http://www.w3.org/2000/svg">
<path d="M46.5869 7.64395C46.5869 5.28098 46.6279 3.08098 46.7509 1.04395L40.4779 2.22543V2.7958L41.0929 2.87728C41.5439 2.91802 41.8309 3.08098 41.9949 3.32543C42.1589 3.61061 42.2819 4.01802 42.3639 4.62913C42.4459 5.81061 42.5279 8.4995 42.4869 12.7365C42.4869 16.9328 42.4459 19.581 42.3639 20.5995C44.6189 21.0884 46.3819 21.2921 47.6939 21.2921C50.1539 21.2921 52.0809 20.5995 53.4749 19.1736C54.8689 17.7884 55.6069 15.8328 55.6069 13.4291C55.6069 11.5143 55.0739 9.92543 54.0079 8.66246C52.9419 7.3995 51.5889 6.78839 49.9899 6.78839C48.9239 6.78839 47.8169 7.07358 46.5869 7.64395ZM46.7099 20.1921C46.6279 18.8884 46.5459 14.9773 46.5459 8.58098C46.9149 8.45876 47.4069 8.37728 48.0219 8.37728C49.0059 8.37728 49.7849 8.86617 50.3589 9.88469C50.9329 10.9032 51.2199 12.1254 51.2199 13.6736C51.2199 15.5884 50.8919 17.1365 50.2359 18.4402C49.5799 19.7032 48.7599 20.3551 47.7349 20.3551C47.4069 20.2736 47.0789 20.2328 46.7099 20.1921ZM16.9439 1.45135H0.543945V2.26617L1.40495 2.34765C2.06095 2.46987 2.51195 2.71432 2.79895 3.08098C3.08595 3.48839 3.24995 4.14024 3.29095 5.03654C3.61895 9.43654 3.61895 13.5514 3.29095 17.3402C3.20895 18.2365 3.04495 18.8884 2.79895 19.2958C2.51195 19.7032 2.06095 19.9476 1.40495 20.0291L0.543945 20.1514V20.9662H11.1219V20.1514L10.0149 20.0699C9.74482 20.0474 9.48206 19.9709 9.24249 19.8448C9.00292 19.7188 8.7915 19.5459 8.62095 19.3365C8.33395 18.9291 8.16995 18.2773 8.12895 17.381C8.00595 15.7514 7.92395 13.8773 7.92395 11.7995L10.1379 11.8402C11.3269 11.881 12.1469 12.7773 12.5569 14.5699H13.3769V7.92913H12.5569C12.1469 9.68098 11.3679 10.5773 10.1379 10.618L7.92395 10.6588C7.92395 6.99209 8.00595 4.38469 8.12895 2.7958H11.3679C13.6639 2.7958 15.2219 4.26246 16.1239 7.1958L17.1079 6.91061L16.9439 1.45135ZM15.0169 13.9995C15.0169 16.118 15.6319 17.8699 16.8209 19.2551C18.0099 20.6402 19.7729 21.2921 21.9869 21.2921C24.2009 21.2921 26.0049 20.5995 27.3169 19.1736C28.6289 17.7884 29.2439 16.0365 29.2439 13.918C29.2439 11.7995 28.6289 10.0476 27.4399 8.66246C26.2509 7.27728 24.4879 6.62543 22.2739 6.62543C20.0599 6.62543 18.2559 7.31802 16.9439 8.74395C15.6319 10.1291 15.0169 11.881 15.0169 13.9995ZM24.1599 9.35506C24.6519 10.5365 24.8569 12.0847 24.8569 13.9588C24.8569 18.2773 23.9549 20.3958 22.1919 20.3958C21.2899 20.3958 20.5929 19.7847 20.1009 18.5625C19.6089 17.3402 19.4039 15.7921 19.4039 13.9588C19.4039 9.68098 20.3059 7.56246 22.0689 7.56246C22.9709 7.52172 23.6679 8.13283 24.1599 9.35506ZM58.8049 19.2551C60.1579 20.5995 61.8799 21.2921 63.9299 21.2921C65.201 21.2921 66.3079 21.0476 67.2919 20.518C68.2759 20.0291 69.0549 19.418 69.5879 18.6847L69.1779 18.1958C68.2759 18.8884 67.2509 19.2143 66.0619 19.2143C64.4219 19.2143 63.1509 18.6847 62.2899 17.5847C61.3879 16.4847 60.9779 15.0995 61.0599 13.3069H69.8339C69.8339 11.3514 69.3419 9.76246 68.3169 8.4995C67.2919 7.27728 65.8569 6.66617 64.0119 6.66617C61.7159 6.66617 59.9529 7.3995 58.6819 8.82543C57.4109 10.2514 56.7959 12.0032 56.7959 14.081C56.7959 16.1995 57.4519 17.9106 58.8049 19.2551ZM61.8389 9.02913C62.2899 8.05135 62.8639 7.56246 63.6429 7.56246C64.8729 7.56246 65.4879 9.11061 65.4879 12.2476L61.1419 12.3291C61.1829 11.1069 61.3879 10.0069 61.8389 9.02913ZM80.8629 7.3995C79.7559 6.91061 78.3619 6.62543 76.6809 6.62543C74.9589 6.62543 73.6059 7.07357 72.5809 7.92913C71.5559 8.78469 71.0229 9.84395 71.0229 11.1069C71.0229 12.2069 71.3509 13.0625 71.9659 13.6736C72.5809 14.2847 73.5649 14.8143 74.8359 15.2625C75.9839 15.6699 76.8039 16.0773 77.2139 16.4439C77.6239 16.8514 77.8699 17.2995 77.8699 17.9106C77.8699 18.481 77.6649 19.0106 77.2139 19.418C76.8039 19.8662 76.2299 20.0699 75.4919 20.0699C73.6879 20.0699 72.3349 18.7662 71.3919 16.1588L70.6949 16.3625L70.8589 20.4365C72.3349 21.0069 73.9749 21.2921 75.7789 21.2921C77.6649 21.2921 79.0999 20.8847 80.1659 20.0291C81.2319 19.2143 81.7649 18.0328 81.7649 16.5662C81.7649 15.5884 81.5189 14.7736 80.9859 14.1625C80.4529 13.5514 79.5919 13.0217 78.3619 12.5328C77.0089 12.0439 76.0659 11.5958 75.5739 11.1884C75.0819 10.781 74.8359 10.2921 74.8359 9.68098C74.8359 9.06987 74.9999 8.58098 75.3689 8.17357C75.7379 7.76617 76.1889 7.6032 76.7629 7.6032C78.4029 7.6032 79.5919 8.78469 80.3299 11.1069L81.0269 10.9032L80.8629 7.3995ZM41.4209 7.03283C40.8469 6.74765 40.2319 6.62543 39.5349 6.62543C38.8379 6.62543 38.1409 6.91061 37.3619 7.48098C36.5829 8.05135 36.0089 8.82543 35.5579 9.88469L35.5989 6.62543L29.3669 7.84765V8.41802L29.9819 8.45876C30.7609 8.54024 31.2119 9.15135 31.2939 10.2514C31.5399 12.7773 31.5399 15.4662 31.2939 18.318C31.2119 19.418 30.7609 19.9884 29.9819 20.1106L29.3669 20.1921V20.9662H38.0589V20.1921L36.9519 20.1106C36.1729 20.0291 35.7219 19.418 35.6399 18.318C35.3939 15.9551 35.3529 13.4291 35.5579 10.8217C35.8039 10.4143 36.3369 10.1699 37.1569 10.0884C37.9769 10.0069 38.9199 10.2514 39.9039 10.8217L41.4209 7.03283Z" fill="#606060"/>
</svg>
