<svg width="184" height="26" viewBox="0 0 184 26" fill="none" xmlns="http://www.w3.org/2000/svg">
<path d="M14.57 3.34117C14.57 1.32117 12.65 0.711168 11.04 0.781168V0.961168C12 1.03117 12.74 1.42117 12.74 2.07117C12.74 2.52117 12.42 3.08117 11.46 3.08117C10.7 3.08117 9.44 2.63117 8.26 2.24117C6.96 1.79117 5.72 1.37117 4.69 1.37117C2.67 1.37117 1.14 2.87117 1.14 4.73117C1.14 6.23117 2.3 6.75117 2.77 6.94117L2.8 6.87117C2.5 6.67117 2.31 6.45117 2.31 5.81117C2.31 5.27117 2.7 4.55117 3.74 4.55117C4.68 4.55117 5.91 4.97117 7.54 5.43117C8.94 5.82117 10.45 6.19117 11.29 6.30117V9.58117L9.71 10.8812L11.29 12.2412V16.7312C10.48 17.1912 9.54 17.3412 8.73 17.3412C7.23 17.3412 5.85 16.9212 4.71 15.6612L8.97 13.5912V6.50117L3.77 8.82117C4.31 7.44117 5.32 6.41117 6.43 5.74117L6.4 5.66117C3.31 6.50117 0.5 9.33117 0.5 12.8312C0.5 17.0212 3.85 20.1312 7.72 20.1312C11.91 20.1312 14.37 16.8512 14.33 13.3812H14.25C13.64 14.7112 12.62 15.9712 11.47 16.6312V12.2512L13.12 10.9212L11.47 9.59117V6.31117C13 6.31117 14.58 5.30117 14.58 3.35117M5.8 14.9012L4.59 15.5112C3.85 14.5512 3.36 13.1912 3.36 11.4412C3.36 10.7212 3.44 9.74117 3.68 9.05117L5.82 8.09117L5.79 14.8912L5.8 14.9012ZM25.27 9.14117L24.46 9.78117L21.99 7.58117L19.13 9.79117V1.25117L15.24 3.94117C15.69 4.09117 16.23 4.33117 16.23 5.37117V17.1812L14.9 18.1912L15.02 18.3112L15.69 17.8512L18.01 19.9712L21.12 17.9012L21.02 17.7512L20.23 18.2712L19.15 17.1912V10.0712L19.89 9.53117L21.59 11.0112V17.2012C21.59 21.1212 20.72 21.9312 18.96 22.5712V22.6712C21.89 22.7912 24.53 21.8012 24.53 16.7812V10.0312L25.41 9.31117L25.29 9.16117L25.27 9.14117ZM30.49 19.9412L35 16.3212L34.88 16.1512L32.52 18.0212L29.81 15.8812V14.5512L34.49 11.2512L32.13 7.58117L26.93 10.4412V17.2412L25.92 18.0312L26.04 18.1812L27 17.4212L30.5 19.9612H30.49V19.9412ZM29.8 14.2712V9.12117L32.07 12.6712L29.8 14.2712ZM53.65 2.38117C53.65 2.06117 53.57 1.79117 53.45 1.42117H53.38C53.06 2.29117 52.71 2.75117 51.7 2.75117C50.82 2.75117 50.12 2.21117 49.75 1.81117C49.75 1.84117 46.79 5.23117 46.79 5.23117L46.94 5.35117L47.78 4.39117C48.42 4.88117 48.99 5.45117 50.41 5.47117V14.1112L44.35 3.61117C43.88 2.82117 43.07 1.64117 41.69 1.64117C40.06 1.64117 38.83 3.04117 39.03 5.41117H39.13C39.25 4.82117 39.6 4.08117 40.31 4.08117C40.88 4.08117 41.34 4.62117 41.61 5.11117V8.49117C39.74 8.49117 38.68 9.36117 38.68 10.8312C38.68 11.4412 39.13 12.7712 40.4 13.0012V12.9312C40.23 12.7612 40.06 12.6112 40.06 12.2612C40.06 11.6912 40.48 11.3812 41.24 11.3812C41.36 11.3812 41.54 11.4112 41.61 11.4312V15.8112C39.41 15.8412 37.72 17.0412 37.72 19.1212C37.72 21.2012 39.42 22.0012 41.19 21.9012V21.8312C40.08 21.7112 39.51 21.1412 39.51 20.3312C39.51 19.4512 40.15 18.9712 40.96 18.9712C41.77 18.9712 42.39 19.4912 42.91 20.0812L45.87 16.7512L45.75 16.6312L44.99 17.5012C43.85 16.4912 43.12 16.0212 41.81 15.8212V5.44117L50.17 20.0112H50.62V5.49117C52.22 5.39117 53.65 4.19117 53.65 2.38117ZM56.46 19.9212L60.97 16.3012L60.85 16.1312L58.49 18.0012L55.78 15.8612V14.5312L60.46 11.2312L58.1 7.56117L52.9 10.4212V17.2212L51.89 18.0112L52.01 18.1612L52.97 17.4012L56.47 19.9412L56.46 19.9212ZM55.77 14.2512V9.10117L58.04 12.6512L55.77 14.2512ZM76.99 8.73117L76.3 9.25117L74.33 7.57117L72.04 9.64117L72.98 10.5212V18.2412L70.64 16.6412V10.3812L71.45 9.81117L69.04 7.57117L66.8 9.64117L67.74 10.5212V17.9812L67.59 18.0812L65.39 16.4812V10.3512C65.39 8.92117 64.67 8.50117 63.76 7.94117C63 7.47117 62.6 7.03117 62.6 6.31117C62.6 5.52117 63.29 5.20117 63.51 5.08117C62.72 5.05117 60.53 5.84117 60.48 7.84117C60.45 8.87117 60.95 9.32117 61.47 9.81117C61.99 10.3012 62.48 10.7712 62.48 11.6412V17.6512L61.42 18.4912L61.54 18.6112L62.55 17.8212L65.18 19.9612L67.69 18.2112L70.45 19.9612L75.87 16.7612V9.81117L77.08 8.87117L76.98 8.72117L76.99 8.73117ZM95.14 2.89117L94.11 3.83117L91.79 1.81117L88.66 4.32117V1.96117H88.47V18.8912C88.13 18.8412 87.41 18.6412 86.62 18.5212V4.35117C86.62 3.32117 85.88 1.88117 84.03 1.88117C82.18 1.88117 81.02 3.44117 81.02 4.79117H81.1C81.2 4.18117 81.62 3.63117 82.23 3.63117C82.84 3.63117 83.41 4.02117 83.41 5.41117V9.45117C81.66 9.52117 80.6 10.6112 80.6 11.7912C80.6 12.4612 81.02 13.7112 82.35 13.7612V13.6612C81.9 13.4712 81.81 13.2412 81.81 12.9912C81.81 12.4012 82.38 12.2012 83.17 12.2012H83.36V18.7112C81.86 19.2312 81.16 20.2412 81.16 21.4912C81.16 23.2112 82.54 24.5412 84.56 24.5412C85.99 24.5412 87 24.2912 88.31 24.0012C89.37 23.7812 90.52 23.5312 91.14 23.5312C91.93 23.5312 92.28 23.8812 92.28 24.4412C92.28 25.1612 92.01 25.5212 91.59 25.6512V25.7512C93.29 25.4312 94.28 24.4512 94.28 22.9212C94.28 21.3912 92.78 20.3812 91.1 20.3812C90.23 20.3812 88.66 20.6512 87.38 20.9512C85.95 21.2712 84.72 21.4212 84.27 21.4212C83.55 21.4212 82.67 21.1012 82.67 20.1412C82.67 19.2712 83.39 18.5812 85.16 18.5812C86.12 18.5812 87.06 18.7312 88.24 19.0012C89.5 19.2712 90.36 19.6412 91.44 19.6412C92.94 19.6412 94.15 19.1012 94.15 16.9012V4.06117L95.26 3.05117L95.14 2.90117V2.89117ZM90.9 9.67117C90.63 9.97117 90.31 10.2112 89.79 10.2112C89.22 10.2112 88.92 9.91117 88.65 9.67117V4.58117L89.39 3.99117L90.89 5.27117V9.68117L90.9 9.67117ZM90.9 12.0812C90.65 11.8312 90.33 11.6112 89.79 11.6112C89.25 11.6112 88.88 11.8812 88.65 12.0812V9.91117C88.87 10.1012 89.24 10.4012 89.79 10.4012C90.34 10.4012 90.66 10.1512 90.9 9.91117V12.0812ZM90.9 17.1812C90.9 18.0212 90.48 18.9612 89.4 18.9612C89.23 18.9612 88.83 18.9312 88.66 18.9112V12.3312C88.91 12.1112 89.23 11.8112 89.8 11.8112C90.32 11.8112 90.61 12.0612 90.91 12.3312V17.1912L90.9 17.1812ZM99.68 19.9212L104.71 16.7912V9.94117L101.46 7.55117L96.43 10.4312V17.2112L95.44 18.0012L95.54 18.1512L96.35 17.4812L99.68 19.9212ZM99.31 16.3712V9.07117L101.82 10.9412V18.2412L99.31 16.3712ZM114.32 7.72117C113.93 7.99117 113.58 8.14117 113.21 8.14117C112.82 8.14117 112.33 7.89117 112.07 7.57117C112.07 7.60117 110.2 9.59117 110.2 9.59117L108.33 7.57117L105.28 9.69117L105.38 9.86117L106.19 9.32117L107.3 10.5312V17.1612L105.97 18.1712L106.09 18.2912L106.76 17.8312L109.25 19.9512L112.4 17.8612L112.3 17.7112L111.49 18.2012L110.21 17.0412V9.76117C110.73 10.3312 111.32 10.8212 112.03 10.8212C113.31 10.8212 114.17 9.29117 114.32 7.71117M126.2 17.5212L125.26 18.1112L120.06 10.3512L120.33 9.98117C120.9 10.3212 121.41 10.7912 122.5 10.7912C123.59 10.7912 124.97 9.65117 125.09 7.56117C124.82 7.93117 124.28 8.37117 123.39 8.37117C122.75 8.37117 122.11 7.95117 121.72 7.56117L118.17 12.7812L122.88 19.9512L126.3 17.6812L126.2 17.5112V17.5212ZM119.89 17.7112L119.1 18.2312L118.02 17.1512V1.25117L114.13 3.94117C114.58 4.09117 115.12 4.33117 115.12 5.37117V17.1812L113.79 18.1912L113.91 18.3112L114.58 17.8512L116.9 19.9712L120.01 17.9012L119.91 17.7512L119.89 17.7112ZM142.78 3.32117C142.78 1.30117 140.86 0.691168 139.25 0.761168V0.961168C140.21 1.03117 140.95 1.42117 140.95 2.07117C140.95 2.52117 140.63 3.08117 139.67 3.08117C138.91 3.08117 137.65 2.63117 136.47 2.24117C135.17 1.79117 133.93 1.37117 132.9 1.37117C130.88 1.37117 129.35 2.87117 129.35 4.72117C129.35 6.22117 130.51 6.74117 130.98 6.93117L131.01 6.86117C130.71 6.66117 130.52 6.44117 130.52 5.80117C130.52 5.26117 130.91 4.54117 131.95 4.54117C132.89 4.54117 134.12 4.96117 135.75 5.42117C137.15 5.81117 138.66 6.18117 139.5 6.29117V9.57117L137.92 10.8712L139.5 12.2312V16.7212C138.69 17.1812 137.75 17.3312 136.94 17.3312C135.44 17.3312 134.05 16.9112 132.92 15.6512L137.18 13.5812V6.50117L131.98 8.82117C132.52 7.44117 133.53 6.41117 134.64 5.74117L134.61 5.66117C131.53 6.50117 128.72 9.33117 128.72 12.8312C128.72 17.0212 132.07 20.1312 135.94 20.1312C140.13 20.1312 142.59 16.8512 142.55 13.3812H142.48C141.87 14.7112 140.85 15.9712 139.7 16.6312V12.2512L141.35 10.9212L139.7 9.59117V6.31117C141.23 6.31117 142.81 5.30117 142.81 3.35117M134.03 14.9112L132.82 15.5212C132.08 14.5612 131.59 13.2012 131.59 11.4512C131.59 10.7312 131.66 9.75117 131.91 9.06117L134.05 8.10117L134.02 14.9012L134.03 14.9112ZM145.96 2.60117L143.79 4.42117L145.64 6.51117L147.81 4.69117L145.96 2.60117ZM149.26 17.7512L148.47 18.2712L147.39 17.1912V10.0212L148.3 9.30117L148.18 9.15117L147.42 9.74117L145.62 7.60117L142.66 9.67117L142.76 9.84117L143.5 9.35117L144.49 10.5812V17.1912L143.16 18.2012L143.28 18.3212L143.95 17.8612L146.27 19.9812L149.38 17.9112L149.28 17.7612L149.26 17.7512ZM165.89 17.6512L165.15 18.1412L163.99 17.0312V10.0012L164.93 9.28117L164.81 9.13117L163.97 9.77117L161.5 7.57117L158.72 9.74117L156.28 7.57117L153.54 9.71117L151.69 7.57117L148.73 9.64117L148.83 9.81117L149.57 9.32117L150.63 10.5312V17.1412L149.82 17.9512L152.18 19.9512L154.47 17.8812L153.53 17.0012V9.96117L154.14 9.51117L155.84 10.9912V17.1512L155.05 17.9612L157.44 19.9612L159.68 17.8912L158.74 17.0112V9.97117L159.33 9.50117L161.05 11.0012V17.0612L160.36 17.7812L162.77 19.9812L165.95 17.8112L165.85 17.6612H165.87L165.89 17.6512ZM174.49 16.1512L172.13 18.0212L169.42 15.8812V14.5512L174.1 11.2512L171.74 7.58117L166.54 10.4412V17.3712L170.11 19.9612L174.62 16.3412L174.5 16.1712L174.49 16.1512ZM169.41 14.2712V9.12117L171.68 12.6712L169.41 14.2712ZM183.53 13.3012L181.53 11.7712C182.86 10.6112 183.33 9.14117 183.33 8.08117C183.33 7.93117 183.3 7.66117 183.28 7.41117H183.2C183.01 7.95117 182.48 8.42117 181.67 8.42117C180.86 8.42117 180.41 7.97117 179.92 7.43117L175.34 9.97117V13.6912L177.09 15.0712C175.34 16.6212 175 17.5812 175 18.4712C175 19.3612 175.52 20.1412 176.41 20.4912L176.48 20.3712C176.26 20.1812 176.06 20.0512 176.06 19.5812C176.06 19.2412 176.41 18.7012 177.2 18.7012C178.21 18.7012 178.83 19.3912 179.15 19.7612C179.15 19.7312 183.53 17.0712 183.53 17.0712V13.3012ZM182.5 10.2512C181.81 11.4812 180.29 12.6912 179.39 13.3812L178.28 12.4412V8.82117C178.73 9.81117 179.64 10.6412 180.82 10.6412C181.51 10.6412 181.96 10.5212 182.49 10.2512M180.59 18.3812C180.07 17.2212 178.96 16.3812 177.73 16.3812C177.43 16.3812 176.52 16.3512 175.73 16.8412C176.2 16.0512 177.6 14.6312 179.38 13.5612L180.59 14.5712V18.3712V18.3812Z" fill="#606060"/>
</svg>
