<svg width="42" height="21" viewBox="0 0 42 21" fill="none" xmlns="http://www.w3.org/2000/svg">
<path d="M19.2634 0.44366H19.8555L19.9251 0.165039H12.472L12.4024 0.44366H13.482C14.4224 0.44366 15.1886 1.10538 15.1886 2.394C15.1886 3.12538 14.8751 4.06573 14.3527 5.21504L9.51169 15.9071L8.32755 2.0109C8.22307 0.931246 8.78031 0.44366 9.99927 0.44366H10.6958L10.7655 0.165039H0.247549L0.143066 0.44366H0.80479C1.64065 0.44366 1.9541 0.966073 2.02376 1.94125L3.90445 19.9123H8.32755L15.7458 4.20504C16.8951 1.87159 18.0793 0.44366 19.2634 0.44366ZM18.3927 19.9819C17.731 19.9819 17.3131 19.773 17.3131 18.6585C17.3131 17.2654 17.8355 14.514 18.3927 12.0064C18.4624 13.1557 19.2634 14.305 20.4475 14.305C20.7262 14.305 20.97 14.2702 21.2138 14.2354C20.0993 19.0068 19.6813 19.9819 18.3927 19.9819ZM39.4982 10.5437C40.8913 10.5437 41.7969 9.39435 41.7969 8.0709C41.7969 6.95642 40.9958 6.12056 39.8465 6.12056C37.7917 6.12056 36.8165 7.75745 35.11 10.7526C34.7617 8.87193 33.891 6.434 31.7317 6.434C29.2938 6.434 26.4727 9.91676 23.8955 12.0761C22.7113 13.0861 21.4227 13.713 20.3779 13.713C19.2982 13.713 18.6713 12.6333 18.6713 10.7178C19.4375 7.58331 19.8206 6.78228 21.0048 6.78228C21.8058 6.78228 22.1541 7.23504 22.1541 8.17538C22.1541 9.18538 21.9451 10.8571 21.4924 12.9816C22.6417 12.6333 24.3831 11.1706 25.8458 9.60331C25.0796 7.75745 23.4079 6.50366 21.0396 6.50366C16.6165 6.50366 12.7158 10.474 12.7158 14.9319C12.7158 17.9968 14.91 20.3302 18.3231 20.3302C23.9651 20.3302 26.3334 15.4543 26.3334 12.0412C26.3334 11.5537 26.2986 11.2054 26.2638 10.7526C27.1344 9.81228 28.2489 8.90676 29.1544 8.90676C30.1993 8.90676 31.0351 11.5188 31.8362 15.4543C31.1048 16.2554 30.3734 17.7878 30.0251 18.0664C29.8858 16.6733 28.9455 15.8026 27.7265 15.8026C26.3334 15.8026 25.3931 17.1261 25.3931 18.2406C25.3931 19.4943 26.2638 20.3302 27.4131 20.3302C29.8162 20.3302 30.4779 18.0664 31.9755 16.0464C32.4282 18.2057 33.5079 20.3302 35.3538 20.3302C37.5479 20.3302 39.5679 18.4495 40.6127 17.1261L40.4038 16.8126C39.742 17.4743 39.0803 17.8923 38.3141 17.8923C36.9558 17.8923 35.9806 14.9668 35.2493 11.4143C35.702 10.8223 36.3986 9.28987 36.8862 8.73263C37.1996 9.35952 37.8962 10.5437 39.4982 10.5437ZM86.0627 5.87676H86.7941L86.8637 5.52849H77.8086L77.7389 5.87676H79.0624C80.2117 5.87676 81.152 6.6778 81.152 8.24504C81.152 9.15056 80.7689 10.265 80.142 11.6581L74.2562 24.6488L72.7586 7.79228C72.6193 6.46883 73.3158 5.87676 74.7786 5.87676H75.6144L75.6841 5.52849H62.9024L62.7631 5.87676H63.5641C64.5741 5.87676 64.9572 6.50366 65.0617 7.6878L67.3603 29.5247H72.7237L81.7441 10.4392C83.2068 7.61814 84.6348 5.87676 86.0627 5.87676Z" fill="#606060"/>
</svg>
