<svg width="234" height="23" viewBox="0 0 234 23" fill="none" xmlns="http://www.w3.org/2000/svg">
<path d="M6.47071 19.5653C6.47071 20.4687 6.7331 20.6433 7.31616 20.7897L8.21959 20.9938V21.4017H2.21508V20.9938L2.97297 20.8193C3.55602 20.6737 3.81841 20.3815 3.81841 19.5662V1.90145H3.17708C1.36993 1.90145 0.641333 4.84543 0.437218 7.96423H0V1.31869H10.2891V7.96453H9.85191C9.64779 4.84573 8.9192 1.90175 7.11205 1.90175H6.47071V19.5653ZM10.9305 20.9935L11.5718 20.8184C12.1549 20.6729 12.4172 20.3812 12.4172 19.5653V3.12584C12.4172 2.30968 12.1549 2.04729 11.5718 1.90145L10.9305 1.72662V1.31839H16.6143V1.72662L15.944 1.90145C15.3902 2.04729 15.0695 2.28039 15.0695 3.09655V10.7624H19.471V3.09655C19.471 2.28039 19.1503 2.04729 18.5966 1.90145L17.9263 1.72662V1.31839H23.6101V1.72662L22.9688 1.90145C22.386 2.04729 22.1236 2.30968 22.1236 3.12584V19.5363C22.1236 20.3525 22.386 20.6737 22.9688 20.8193L23.6101 20.9938V21.4017H17.926V20.9938L18.5963 20.8486C19.15 20.703 19.4707 20.3818 19.4707 19.5662V11.433H15.0695V19.5653C15.0695 20.3812 15.3902 20.7021 15.944 20.8477L16.6143 20.9935V21.4009H10.9305V20.9935ZM28.3902 20.819H30.4015C33.0248 20.819 33.5203 17.8457 33.8699 14.7562H34.3071V21.4011H24.2511V20.9935L24.8925 20.819C25.4755 20.6731 25.7379 20.3812 25.7379 19.5656V3.15483C25.7379 2.33897 25.4755 2.04729 24.8925 1.90145L24.2511 1.72662V1.31839H34.0158V7.96423H33.5786C33.2579 4.84543 32.6458 1.90145 30.4015 1.90145H28.3902V10.6751L29.3229 10.6458C30.5763 10.5583 31.0425 9.48 31.3632 6.94366H31.8004V15.0467H31.3632C31.1011 11.8696 30.6053 11.3741 29.2936 11.2866L28.3902 11.2573V20.819ZM40.5394 4.00028C40.1604 2.28069 39.9273 2.0183 39.3736 1.87246L38.8198 1.72662V1.31839H44.2705V1.72662L43.8333 1.81389C42.9006 2.018 42.9879 2.95071 43.2503 4.20409L45.5529 15.63L47.2435 6.53573L46.6314 3.41662C46.3983 2.30908 46.3108 1.95943 45.728 1.81359L45.3491 1.72632V1.31809H50.6833V1.72632L50.0419 1.84287C49.0799 2.0177 49.2258 3.06697 49.4589 4.20379L51.6743 15.6303L53.8603 4.81614C54.2683 2.57177 54.0645 2.018 53.19 1.84317L52.578 1.72662V1.31839H56.5712V1.72662L56.0174 1.87246C55.3178 2.04729 55.143 2.60106 54.7348 4.55405L51.1788 21.5183H50.4209L47.681 8.2852L45.2032 21.5183H44.2412L40.5394 4.00028ZM69.0464 20.819H70.2122C72.6897 20.819 73.4186 17.8741 73.71 14.7562H74.1472V21.4011H59.2525V20.9935L59.8645 20.8764C61.1179 20.6439 61.1179 20.2942 60.7973 18.5444L60.2435 15.9211H56.6582L56.2792 17.904C55.842 20.1484 56.0751 20.7015 56.9499 20.8764L57.5619 20.9935V21.4011H53.5104V20.9935L54.0059 20.848C54.7928 20.6149 54.9969 20.1484 55.4051 18.1661L58.9611 1.20154H59.8356L63.5664 18.7196C63.9454 20.527 64.1202 20.9051 65.1694 20.9051C66.0729 20.9051 66.3935 20.4386 66.3935 19.565V3.12554C66.3935 2.30938 66.1314 2.04699 65.5484 1.90115L64.9071 1.72632V1.31839H70.6785V1.75561L69.8913 1.93044C69.3085 2.04699 69.0461 2.30938 69.0461 3.12554L69.0464 20.819ZM56.775 15.2511H60.098L58.4074 6.97354L56.775 15.2511ZM78.9276 20.819H80.0934C82.5712 20.819 83.2998 17.8741 83.5912 14.7562H84.0284V21.4011H74.7886V20.9935L75.4299 20.819C76.0129 20.6731 76.2753 20.3812 76.2753 19.5656V3.12584C76.2753 2.30968 76.0129 2.04729 75.4299 1.90145L74.7886 1.72662V1.31839H80.56V1.75561L79.7731 1.93044C79.19 2.04699 78.9276 2.30938 78.9276 3.12554V20.819ZM93.5331 21.5177C91.8428 21.5177 91.26 20.3525 90.7062 20.3525C90.3856 20.3525 90.0066 20.4397 89.7152 21.4017H89.3656V14.7556H89.8028C90.1528 18.5157 91.552 20.8761 93.5047 20.8761C94.8163 20.8761 95.72 19.681 95.72 17.5242C95.72 12.9769 89.22 11.0242 89.22 5.98136C89.22 3.27078 90.6193 1.20094 93.0967 1.20094C94.6998 1.20094 95.0497 2.25021 95.72 2.25021C96.099 2.25021 96.3614 1.95883 96.5069 1.3175H96.8566V7.96333H96.4194C96.0697 4.61143 95.1663 1.84228 93.0671 1.84228C91.6099 1.84228 91.3183 3.29947 91.3183 4.29076C91.3183 8.63395 97.8183 10.1204 97.8183 16.1829C97.8174 19.2739 96.1271 21.5177 93.5331 21.5177ZM104.259 19.5653C104.259 20.3812 104.522 20.6729 105.105 20.8184L105.863 20.9935V21.4009H100.004V20.9935L100.762 20.8184C101.345 20.6729 101.607 20.3812 101.607 19.5653V1.90145H100.966C99.1589 1.90145 98.4303 4.84543 98.2262 7.96423H97.789V1.31869H108.079V7.96453H107.641C107.437 4.84573 106.709 1.90175 104.901 1.90175H104.26V19.5653H104.259ZM108.719 20.9935L109.36 20.8184C109.944 20.6729 110.206 20.3812 110.206 19.5653V3.12584C110.206 2.30968 109.944 2.04729 109.36 1.90145L108.719 1.72662V1.31839H114.286C116.764 1.31839 119.067 2.89244 119.067 6.18607C119.067 8.72212 117.872 10.5003 115.452 11.1416C118.105 11.6368 118.105 12.8908 118.367 16.2421L118.542 18.8071C118.63 20.2353 118.688 20.5566 119.096 20.5566C119.533 20.5566 119.708 19.5659 119.708 18.6036V18.1081H120.204V18.7781C120.204 20.3815 119.854 21.518 118.193 21.518C116.56 21.518 115.803 20.5853 115.685 17.2337L115.54 13.5028C115.482 11.7247 115.045 11.4623 114.199 11.4623H112.829V19.5656C112.829 20.3815 113.092 20.7024 113.675 20.848L114.316 20.9938V21.4011H108.719L108.719 20.9935ZM112.829 10.8792H113.791C115.423 10.8792 116.239 10.442 116.239 6.56531C116.239 2.68862 115.161 1.90175 113.995 1.90175H112.829L112.829 10.8792ZM124.517 20.819H126.528C129.151 20.819 129.648 17.8457 129.997 14.7562H130.434V21.4011H120.378V20.9935L121.019 20.819C121.602 20.6731 121.864 20.3812 121.864 19.5656V3.15483C121.864 2.33897 121.602 2.04729 121.019 1.90145L120.378 1.72662V1.31839H130.143V7.96423H129.705C129.386 4.84543 128.773 1.90145 126.528 1.90145H124.517V10.6751L125.45 10.6458C126.703 10.5583 127.17 9.48 127.49 6.94366H127.928V15.0467H127.49C127.228 11.8696 126.733 11.3741 125.42 11.2866L124.517 11.2573V20.819ZM135.331 20.819H137.343C139.965 20.819 140.462 17.8457 140.811 14.7562H141.248V21.4011H131.192V20.9935L131.834 20.819C132.417 20.6731 132.679 20.3812 132.679 19.5656V3.15483C132.679 2.33897 132.417 2.04729 131.834 1.90145L131.192 1.72662V1.31839H140.957V7.96423H140.52C140.199 4.84543 139.587 1.90145 137.343 1.90145H135.331V10.6751L136.264 10.6458C137.517 10.5583 137.984 9.48 138.304 6.94366H138.742V15.0467H138.304C138.042 11.8696 137.547 11.3741 136.235 11.2866L135.331 11.2573V20.819ZM148.361 19.5653C148.361 20.4687 148.624 20.6433 149.206 20.7897L150.109 20.9938V21.4017H144.105V20.9938L144.863 20.8193C145.445 20.6737 145.708 20.3815 145.708 19.5662V1.90145H145.067C143.26 1.90145 142.531 4.84543 142.327 7.96423H141.89V1.31869H152.179V7.96453H151.742C151.538 4.84573 150.809 1.90175 149.002 1.90175H148.361V19.5653ZM164.365 16.7672C164.365 19.8866 162.79 21.5177 160.372 21.5177C158.186 21.5177 156.904 19.7401 156.932 17.7872C156.962 16.2717 158.069 15.5141 158.973 15.6303C159.614 15.7176 160.255 16.1841 160.168 17.2044C160.08 18.6619 158.506 18.6036 158.448 19.507C158.39 20.0611 159.118 20.877 160.05 20.877C161.683 20.877 161.683 18.8074 161.683 17.2337V3.09655C161.683 2.28039 161.42 2.04729 160.78 1.90145L160.051 1.72662V1.31839H165.794V1.72662L165.153 1.90145C164.57 2.04729 164.366 2.30968 164.366 3.12584L164.365 16.7672ZM171.157 21.5473C167.747 21.5473 166.085 16.942 166.085 11.3451C166.085 5.77814 167.688 1.17285 171.157 1.17285C174.596 1.17285 176.258 5.77814 176.258 11.3451C176.258 16.942 174.684 21.5473 171.157 21.5473ZM171.157 1.84317C169.699 1.84317 168.971 3.00899 168.971 11.2292C168.971 19.7109 169.641 20.9063 171.157 20.9063C172.672 20.9063 173.372 19.7108 173.372 11.1703C173.372 3.00929 172.672 1.84317 171.157 1.84317ZM187.8 20.9935L188.441 20.8184C189.024 20.6729 189.287 20.3812 189.287 19.5653V3.12584C189.287 2.16384 188.85 1.81418 187.829 1.81418C186.547 1.81418 186.226 2.39724 186.226 4.05855V16.7089C186.226 19.857 185.119 21.5473 182.409 21.5473C179.61 21.5473 177.978 19.857 177.978 16.7965V3.12584C177.978 2.30968 177.774 2.04729 177.191 1.90145L176.55 1.72662V1.31839H182.35V1.72662L181.563 1.90145C180.922 2.04729 180.66 2.28039 180.66 3.09655V17.0003C180.66 19.8277 181.476 20.5563 182.962 20.5563C184.712 20.5563 185.44 19.5653 185.44 16.7086V5.10782C185.44 2.65933 185.411 2.07628 184.362 1.84317L183.808 1.72662V1.31839H193.369C195.846 1.31839 198.149 2.89244 198.149 6.18607C198.149 8.72212 196.954 10.5003 194.534 11.1416C197.187 11.6368 197.187 12.8908 197.449 16.2421L197.624 18.8071C197.712 20.2353 197.769 20.5566 198.178 20.5566C198.615 20.5566 198.791 19.5659 198.791 18.6036V18.1081H199.286V18.7781C199.286 20.3815 198.936 21.518 197.275 21.518C195.643 21.518 194.885 20.5853 194.767 17.2337L194.622 13.5028C194.564 11.7247 194.127 11.4623 193.282 11.4623H191.912V19.5656C191.912 20.3815 192.174 20.7024 192.757 20.848L193.398 20.9938V21.4011H187.801V20.9938L187.8 20.9935ZM191.91 10.8792H192.872C194.504 10.8792 195.32 10.442 195.32 6.56531C195.32 2.68862 194.242 1.90175 193.076 1.90175H191.91V10.8792ZM199.809 1.84317L199.402 1.72662V1.31839H203.22L208.437 14.5515V5.02025C208.437 2.86345 208.495 2.10556 206.95 1.84317L206.455 1.72662V1.31839H210.769V1.72662L210.362 1.84317C209.108 2.13455 209.196 3.15483 209.196 5.19508V21.4014H208.263L201.734 5.34122V17.6999C201.734 20.0608 201.734 20.7317 203.599 20.9935V21.4009H199.401V20.9935L199.927 20.906C201.004 20.7012 200.976 19.6526 200.976 17.5251V3.59205C200.48 2.57207 200.276 2.018 199.809 1.84317ZM225.46 20.819H226.626C229.103 20.819 229.832 17.8741 230.123 14.7562H230.561V21.4011H215.695V20.9935L216.307 20.8764C217.561 20.6439 217.59 20.2942 217.24 18.5444L216.686 15.9211H213.101L212.721 17.904C212.284 20.1484 212.517 20.7015 213.392 20.8764L214.004 20.9935V21.4011H209.952V20.9935L210.447 20.848C211.235 20.6149 211.438 20.1484 211.847 18.1661L215.403 1.20184H216.278L220.008 18.7199C220.388 20.5273 220.533 20.9054 221.582 20.9054C222.485 20.9054 222.807 20.4389 222.807 19.5653V3.12554C222.807 2.30938 222.544 2.04699 221.962 1.90115L221.32 1.72632V1.31839H227.092V1.75561L226.305 1.93044C225.722 2.04699 225.459 2.30938 225.459 3.12554L225.46 20.819ZM213.217 15.2511H216.54L214.85 6.97324L213.217 15.2511ZM234 20.1188C234 20.906 233.417 21.489 232.718 21.489C232.018 21.489 231.435 20.906 231.435 20.1188C231.435 19.3319 232.018 18.7489 232.718 18.7489C233.417 18.7489 234 19.3322 234 20.1188Z" fill="#606060"/>
</svg>
