<?xml version="1.0" encoding="utf-8"?>
<svg xmlns="http://www.w3.org/2000/svg" data-name="Слой 1" id="__1" viewBox="0 0 70 83.3">
  <defs>
    <style>
      .cls-1 {
        fill: url(#GradientFill_19);
      }

      .cls-1, .cls-2, .cls-3, .cls-4, .cls-5, .cls-6, .cls-7, .cls-8, .cls-9, .cls-10, .cls-11 {
        fill-rule: evenodd;
      }

      .cls-2 {
        fill: url(#GradientFill_13);
      }

      .cls-3 {
        fill: url(#GradientFill_12);
      }

      .cls-12 {
        fill: url(#GradientFill_9-2);
      }

      .cls-4 {
        fill: url(#GradientFill_3-2);
      }

      .cls-5 {
        fill: none;
        stroke: #1a1a1a;
        stroke-miterlimit: 2.61;
        stroke-width: .72px;
      }

      .cls-6 {
        fill: url(#GradientFill_12-2);
      }

      .cls-7 {
        fill: url(#GradientFill_3);
      }

      .cls-8 {
        fill: url(#GradientFill_8);
      }

      .cls-9 {
        fill: url(#GradientFill_9);
      }

      .cls-10 {
        fill: url(#GradientFill_7);
      }
    </style>
    <linearGradient data-name="GradientFill 3" gradientUnits="userSpaceOnUse" id="GradientFill_3" x1="35" x2="35" y1="78.35" y2="11.89">
      <stop offset="0" stop-color="#dba73e"/>
      <stop offset=".16" stop-color="#d89d3a"/>
      <stop offset=".3" stop-color="#a46b28"/>
      <stop offset=".46" stop-color="#8e5723"/>
      <stop offset=".49" stop-color="#f4f3b8"/>
      <stop offset=".56" stop-color="#f7ed9a"/>
      <stop offset=".69" stop-color="#d5b767"/>
      <stop offset=".75" stop-color="#a76f29"/>
      <stop offset=".85" stop-color="#d0ab5b"/>
      <stop offset="1" stop-color="#e0c77d"/>
    </linearGradient>
    <linearGradient data-name="GradientFill 13" gradientUnits="userSpaceOnUse" id="GradientFill_13" x1=".26" x2="64.62" y1="41.62" y2="41.62">
      <stop offset="0" stop-color="#5e5f5f"/>
      <stop offset=".05" stop-color="#000002"/>
      <stop offset=".13" stop-color="#424242"/>
      <stop offset=".21" stop-color="#1b1b1b"/>
      <stop offset=".49" stop-color="#000002"/>
      <stop offset=".79" stop-color="#1b1b1b"/>
      <stop offset=".87" stop-color="#5e5f5f"/>
      <stop offset=".94" stop-color="#000002"/>
      <stop offset="1" stop-color="#5e5f5f"/>
    </linearGradient>
    <linearGradient data-name="GradientFill 12" gradientUnits="userSpaceOnUse" id="GradientFill_12" x1="11.61" x2="47.26" y1="79.21" y2="-.87">
      <stop offset="0" stop-color="#482a0f"/>
      <stop offset=".1" stop-color="#a77129"/>
      <stop offset=".15" stop-color="#fff"/>
      <stop offset=".22" stop-color="#da9e41"/>
      <stop offset=".34" stop-color="#8e5923"/>
      <stop offset=".5" stop-color="#d8a64d"/>
      <stop offset=".66" stop-color="#f5e380"/>
      <stop offset=".72" stop-color="#dac164"/>
      <stop offset=".77" stop-color="#fff"/>
      <stop offset=".83" stop-color="#a0752b"/>
      <stop offset="1" stop-color="#664219"/>
    </linearGradient>
    <linearGradient data-name="GradientFill 19" gradientUnits="userSpaceOnUse" id="GradientFill_19" x1="-5.93" x2="64.46" y1="41.62" y2="41.62">
      <stop offset="0" stop-color="#868786"/>
      <stop offset=".05" stop-color="#3b3b3c"/>
      <stop offset=".13" stop-color="#706f70"/>
      <stop offset=".21" stop-color="#4f5050"/>
      <stop offset=".49" stop-color="#3b3b3c"/>
      <stop offset=".79" stop-color="#4f5050"/>
      <stop offset=".87" stop-color="#868786"/>
      <stop offset=".94" stop-color="#3b3b3c"/>
      <stop offset="1" stop-color="#868786"/>
    </linearGradient>
    <linearGradient data-name="GradientFill 7" gradientUnits="userSpaceOnUse" id="GradientFill_7" x1="35" x2="35" y1="74.33" y2="8.94">
      <stop offset="0" stop-color="#ba9555"/>
      <stop offset=".12" stop-color="#965824"/>
      <stop offset=".4" stop-color="#fcf6ac"/>
      <stop offset=".67" stop-color="#d3ac53"/>
      <stop offset=".85" stop-color="#bd882c"/>
      <stop offset="1" stop-color="#a25d25"/>
    </linearGradient>
    <linearGradient data-name="GradientFill 3" href="#GradientFill_3" id="GradientFill_3-2" x1="35" x2="35" y1="76.65" y2="6.25"/>
    <linearGradient data-name="GradientFill 12" href="#GradientFill_12" id="GradientFill_12-2" x1="14.89" x2="44.95" y1="72.8" y2="5.27"/>
    <linearGradient data-name="GradientFill 8" gradientUnits="userSpaceOnUse" id="GradientFill_8" x1="12" x2="58.21" y1="41.35" y2="41.35">
      <stop offset="0" stop-color="#20679d"/>
      <stop offset=".05" stop-color="#113560"/>
      <stop offset=".13" stop-color="#00558a"/>
      <stop offset=".19" stop-color="#134170"/>
      <stop offset=".49" stop-color="#113560"/>
      <stop offset=".72" stop-color="#134170"/>
      <stop offset=".83" stop-color="#20679d"/>
      <stop offset=".93" stop-color="#113560"/>
      <stop offset="1" stop-color="#20679d"/>
    </linearGradient>
    <linearGradient data-name="GradientFill 9" gradientUnits="userSpaceOnUse" id="GradientFill_9" x1="-96.96" x2="22.67" y1="-97.12" y2="45.45">
      <stop offset="0" stop-color="#fcf6b2"/>
      <stop offset=".22" stop-color="#da9e41"/>
      <stop offset=".38" stop-color="#e8c576"/>
      <stop offset=".5" stop-color="#d8a64d"/>
      <stop offset=".66" stop-color="#f5e380"/>
      <stop offset=".72" stop-color="#dac164"/>
      <stop offset="1" stop-color="#fcf6b2"/>
    </linearGradient>
    <linearGradient data-name="GradientFill 9" href="#GradientFill_9" id="GradientFill_9-2" x1="17.31" x2="51.67" y1="21.14" y2="46.36"/>
  </defs>
  <g>
    <g>
      <path class="cls-7" d="m39.93,75.62c-.26.11-.51.16-.73.18.22-.03.47-.03.75.02.74.05,2.87,2.1,2.95,2.52-.43-.27-.56-.65-1.31-.69-.5-.03-1.18-.03-1.69-.06-1.47-.09-1.12-1.36-2.17-1.45l-.03-.13.53.03c.15-.02.48-.18.97-.23-.48.06-.84-.03-1,0l-.51.15v-.13c1-.33.37-1.49,1.78-1.91.49-.14,1.15-.3,1.63-.44.73-.21.76-.61,1.12-.97.01.43-1.6,2.91-2.31,3.12h0Zm-4.92-.25h0c.45,0,.81.36.81.81s-.36.81-.81.81-.81-.36-.81-.81.36-.81.81-.81h0Zm11.12-60.26h0c.86.3,1.51.08,1.73.09l.51.13v-.13c-1.02-.28-.45-1.47-1.88-1.81-.49-.12-1.16-.24-1.65-.36-.74-.17-.79-.58-1.17-.91,0,.43,1.74,2.83,2.46,3.01h0Zm-22.26.01h0c-.86.3-1.51.08-1.73.09l-.51.13v-.14c1.02-.28.45-1.47,1.88-1.81.49-.12,1.16-.24,1.65-.36.74-.17.79-.58,1.17-.92,0,.43-1.74,2.83-2.46,3.01h0Zm2.28,59.86h0c.28,0,.53.03.75.08-.21-.05-.45-.14-.7-.27-.68-.3-1.97-2.96-1.9-3.39.31.4.3.8.99,1.1.46.2,1.1.44,1.57.64,1.35.59.58,1.66,1.53,2.11l-.02.13-.48-.21c-.15-.04-.52,0-.99-.11.47.11.78.32.93.35l.53.03-.04.13c-1.05-.04-.87,1.27-2.33,1.17-.51-.03-1.18-.12-1.69-.15-.75-.05-.92.31-1.39.52.14-.41,2.51-2.18,3.25-2.13h0Zm-3.79-1.36h0c-.73-.14-3.3,1.32-3.49,1.7.49-.15.7-.49,1.44-.34.5.1,1.15.27,1.65.36,1.45.28,1.42-1.04,2.46-.87l.06-.12-.52-.1c-.14-.05-.41-.28-.85-.45.44.16.8.17.94.23l.45.27.04-.13c-.89-.56,0-1.53-1.26-2.29-.44-.26-1.04-.57-1.47-.83-.65-.38-.58-.78-.84-1.22-.12.41.83,3.21,1.46,3.6.23.17.45.28.66.36-.21-.08-.45-.14-.73-.17h0Zm-3.59-1.82h0c.28.06.51.16.7.26-1.13-.61-1.92-3.46-1.61-4.19.21.47.09.85.68,1.31.4.31.96.7,1.36,1.01,1.16.91.15,1.76.96,2.43l-.05.12-.41-.33c-.13-.07-.5-.13-.93-.36.43.23.68.5.81.57l.5.16-.07.11c-1.01-.3-1.15,1.01-2.55.55-.48-.16-1.11-.41-1.59-.57-.72-.24-.97.07-1.47.16.23-.36,2.97-1.48,3.67-1.25h0Zm-3.34-2.26h0c-.67-.32-3.53.45-3.8.78.51-.02.8-.3,1.48.03.46.22,1.05.55,1.51.76,1.33.63,1.64-.65,2.6-.23l.09-.1-.48-.22c-.12-.09-.34-.39-.73-.67.39.28.75.38.87.47l.37.38.07-.12c-.72-.77.39-1.48-.65-2.53-.36-.36-.86-.81-1.22-1.17-.54-.54-.37-.9-.51-1.39-.22.37,0,3.32.52,3.85.18.22.37.38.54.51-.18-.13-.4-.25-.66-.34h0Zm-3.03-2.66h0c.25.13.45.28.62.43-.16-.15-.33-.34-.48-.58-.45-.59-.29-3.54-.03-3.88.08.5-.13.85.34,1.44.31.4.75.91,1.06,1.32.9,1.17-.3,1.74.32,2.59l-.08.11-.32-.42c-.11-.1-.45-.25-.81-.58.36.33.53.66.64.76l.45.28-.1.09c-.9-.54-1.37.69-2.61-.1-.43-.28-.98-.67-1.4-.95-.63-.41-.96-.17-1.47-.21.32-.29,3.24-.7,3.87-.3h0Zm-2.67-3.02h0c.23.16.41.34.56.5-.14-.17-.28-.38-.4-.63-.37-.64.15-3.55.46-3.86.02.51-.23.82.15,1.47.26.44.63,1,.89,1.44.74,1.27-.51,1.69,0,2.61l-.09.1-.26-.46c-.1-.12-.42-.3-.73-.68.31.37.44.72.54.83l.41.34-.11.08c-.83-.65-1.45.51-2.58-.43-.39-.33-.88-.79-1.27-1.12-.58-.49-.93-.29-1.43-.39.35-.25,3.31-.28,3.88.19h0Zm-2.27-3.33h0c.21.19.37.38.49.57.26.41.56.63.64.76l.21.49.11-.08c-.39-.98.91-1.23.33-2.59-.2-.47-.5-1.08-.7-1.54-.3-.69,0-.97.04-1.48-.34.26-1.23,3.08-.94,3.77.09.27.2.5.32.68.27.41.35.77.44.9l.36.38-.12.06c-.74-.75-1.5.33-2.5-.75-.35-.37-.78-.89-1.12-1.27-.51-.56-.89-.41-1.37-.57.38-.2,3.31.14,3.82.68h0Zm-1.83-3.59h0c.6.68.64,1.37.73,1.57l.31.43-.13.05c-.64-.84-1.53.14-2.39-1.06-.3-.41-.66-.99-.95-1.4-.44-.62-.83-.52-1.29-.74.4-.15,3.27.55,3.71,1.15h0Zm.18-.09h0c-.2-.71,1.03-3.4,1.41-3.62-.11.5-.43.74-.22,1.47.14.49.36,1.13.5,1.62.4,1.42-.92,1.5-.66,2.53l-.12.07-.14-.51c-.09-.2-.61-.66-.77-1.55h0Zm-1.54-3.7h0c-.36-.65-3.11-1.71-3.53-1.61.42.28.82.23,1.18.89.24.45.53,1.06.77,1.51.7,1.3,1.71.44,2.23,1.35l.13-.03-.25-.46c-.05-.14-.04-.51-.2-.97.15.46.38.75.43.9l.08.52.12-.06c-.13-1.05,1.19-.97.97-2.42-.08-.5-.22-1.17-.29-1.67-.12-.75.23-.95.4-1.43-.4.17-1.96,2.68-1.85,3.41.02.28.07.53.14.74-.07-.21-.17-.44-.33-.67h0Zm-.88-3.93h0c.13.25.2.49.25.71-.04-.22-.07-.47-.05-.75-.01-.74,1.85-3.03,2.26-3.15-.23.45-.6.61-.58,1.36.01.51.07,1.18.08,1.69.04,1.47-1.26,1.23-1.27,2.28l-.13.04v-.53c-.04-.15-.23-.47-.32-.94.1.48.04.84.07.99l.19.49h-.13c-.41-.96-1.51-.23-2.05-1.61-.18-.47-.39-1.12-.57-1.59-.27-.71-.67-.71-1.06-1.04.43-.05,3.03,1.35,3.3,2.04h0Zm-.37-4.01h0c-.18-.72-2.59-2.44-3.02-2.44.34.38.74.43.92,1.16.12.49.25,1.16.37,1.65.36,1.43,1.54.85,1.83,1.87h.14s-.13-.51-.13-.51c-.01-.15.09-.51.05-.99-.02-.22,0-.47.05-.75.08-.74,2.22-2.78,2.64-2.84-.28.42-.67.53-.75,1.28-.05.5-.08,1.18-.13,1.69-.15,1.47-1.41,1.06-1.54,2.11l-.13.02.06-.52c0-.15-.16-.49-.19-.98-.02-.22-.06-.47-.15-.74h0Zm.13-4.03h0c-.09-.74-2.26-2.74-2.69-2.8.29.42.68.52.77,1.27.06.5.1,1.18.16,1.68.17,1.46,1.42,1.04,1.58,2.08l.13.02-.06-.52c0-.15.15-.49.18-.98.01-.22.05-.47.14-.74.17-.72,2.55-2.48,2.98-2.49-.33.38-.73.44-.9,1.18-.11.49-.23,1.16-.34,1.66-.33,1.43-1.53.88-1.8,1.9h-.13s.12-.51.12-.51c0-.15-.1-.51-.07-.99.01-.22,0-.47-.06-.75h0Zm.64-3.98h0c0-.74-1.9-3-2.32-3.12.24.45.61.6.6,1.36,0,.5-.05,1.18-.05,1.69-.01,1.47,1.28,1.21,1.3,2.26l.13.04v-.53c.03-.15.21-.47.3-.95.04-.22.11-.46.23-.71.26-.69,2.84-2.14,3.27-2.1-.38.34-.78.34-1.04,1.05-.17.48-.37,1.12-.55,1.6-.51,1.38-1.63.68-2.02,1.65h-.13s.18-.51.18-.51c.03-.15-.03-.51.06-.99.04-.22.06-.47.04-.75h0Zm1.13-3.87h0c-.01.28-.06.53-.13.74-.15.46-.13.83-.18.98l-.25.47.13.03c.51-.92,1.53-.08,2.21-1.39.24-.45.51-1.07.74-1.52.35-.67.75-.63,1.17-.91-.42-.1-3.16,1.01-3.51,1.67-.15.24-.25.47-.32.68-.15.46-.37.76-.41.9l-.07.52-.12-.05c.11-1.05-1.21-.95-1.01-2.41.07-.5.2-1.17.27-1.67.1-.75-.25-.94-.43-1.42.4.16,2,2.65,1.91,3.38h0Zm1.61-3.69h0c-.05.28-.13.52-.22.72-.2.44-.24.81-.3.95l-.3.43.13.04c.62-.85,1.53.11,2.37-1.1.29-.42.64-1,.93-1.41.43-.62.82-.53,1.27-.76-.41-.15-3.26.61-3.69,1.21-.18.22-.31.43-.4.64-.2.44-.46.71-.52.85l-.13.51-.12-.07c.24-1.03-1.08-1.09-.7-2.52.13-.49.34-1.14.47-1.62.2-.73-.13-.97-.25-1.46.38.21,1.65,2.88,1.47,3.6h0Zm2.06-3.46h0c.28-.69-.66-3.49-1-3.75.05.51.35.78.06,1.48-.19.47-.48,1.08-.67,1.55-.55,1.36.75,1.6.38,2.58l.11.08.2-.49c.08-.13.37-.36.63-.77.12-.19.27-.39.48-.58.5-.55,3.43-.94,3.81-.74-.48.17-.86.03-1.36.59-.34.38-.76.91-1.1,1.29-.99,1.1-1.76.03-2.49.79l-.12-.06.35-.39c.08-.13.16-.49.42-.9.12-.19.23-.41.31-.69h0Zm2.48-3.18h0c.36-.65-.21-3.55-.52-3.85-.01.51.25.82-.13,1.48-.25.44-.62,1.01-.86,1.45-.72,1.28.54,1.68.05,2.61l.1.1.26-.46c.1-.12.41-.31.72-.69-.31.38-.43.73-.53.84l-.4.34.11.07c.82-.67,1.45.49,2.57-.47.38-.33.87-.8,1.25-1.14.57-.5.93-.31,1.42-.42-.36-.24-3.31-.23-3.87.26-.23.16-.41.34-.55.51.14-.17.28-.38.39-.64h0Zm2.86-2.84h0c.44-.6.23-3.55-.04-3.88-.07.5.14.84-.31,1.45-.3.41-.74.93-1.04,1.33-.88,1.18.32,1.73-.28,2.6l.08.11.31-.42c.11-.11.45-.26.8-.59-.35.33-.52.66-.63.77l-.44.29.1.09c.89-.56,1.38.67,2.61-.15.42-.28.97-.69,1.39-.97.63-.42.96-.19,1.46-.24-.32-.29-3.26-.64-3.88-.23-.25.13-.45.29-.61.44.16-.15.32-.34.47-.59h0Zm3.19-2.46h0c.51-.54.68-3.49.45-3.86-.14.49.04.85-.49,1.4-.35.36-.85.82-1.2,1.19-1.02,1.06.1,1.76-.6,2.54l.07.11.36-.38c.12-.09.48-.2.87-.49.18-.13.4-.26.66-.36.67-.33,3.53.39,3.82.72-.51-.02-.81-.29-1.48.05-.45.23-1.04.56-1.5.79-1.32.66-1.65-.62-2.6-.18l-.09-.1.47-.23c.12-.09.33-.4.72-.68.18-.13.37-.3.54-.52h0Zm3.48-2.03h0c.57-.47,1.11-3.38.93-3.77-.2.47-.07.85-.66,1.33-.39.32-.94.71-1.34,1.03-1.15.93-.12,1.76-.92,2.44l.05.12.41-.33c.13-.08.5-.14.92-.37-.43.24-.67.51-.8.59l-.5.17.08.11c1-.32,1.17.99,2.56.51.48-.17,1.11-.43,1.58-.59.71-.25.97.06,1.48.14-.24-.36-2.99-1.43-3.69-1.19-.28.07-.51.17-.7.28.19-.11.4-.25.6-.45h0Zm9.45,60.15h0c-.74.05-2.87,2.1-2.95,2.52.43-.27.56-.65,1.31-.69.5-.03,1.18-.03,1.69-.06,1.47-.09,1.12-1.36,2.17-1.45l.03-.13-.53.03c-.15-.02-.48-.18-.97-.23.48.06.84-.03,1,0l.5.15v-.13c-1-.33-.37-1.49-1.78-1.91-.49-.14-1.15-.3-1.63-.44-.73-.21-.76-.61-1.12-.97-.01.43,1.6,2.91,2.31,3.12.26.11.51.16.73.19-.22-.03-.47-.03-.75.02h0Zm13.81-.86h0c-.28,0-.53.03-.74.08.21-.05.45-.14.69-.27.68-.3,1.97-2.96,1.9-3.38-.31.4-.3.8-.99,1.1-.46.2-1.1.44-1.57.64-1.35.59-.58,1.66-1.53,2.11l.02.13.48-.21c.15-.04.51,0,.98-.11-.47.11-.77.32-.92.35l-.53.03.04.13c1.05-.04.87,1.27,2.33,1.17.51-.03,1.18-.12,1.69-.15.75-.05.92.31,1.39.52-.14-.41-2.51-2.18-3.25-2.13h0Zm3.79-1.36h0c.73-.14,3.3,1.32,3.49,1.71-.48-.15-.7-.49-1.44-.34-.5.1-1.15.27-1.65.36-1.44.28-1.42-1.04-2.46-.87l-.06-.12.52-.1c.14-.05.41-.28.85-.45-.44.16-.8.17-.94.23l-.45.27-.04-.13c.89-.57,0-1.53,1.26-2.29.44-.26,1.04-.57,1.47-.83.65-.38.58-.78.84-1.22.12.41-.82,3.21-1.46,3.6-.23.17-.45.28-.66.36.21-.08.45-.14.73-.17h0Zm3.59-1.82h0c-.28.06-.51.16-.7.26.2-.11.4-.25.61-.44.58-.46,1.17-3.36,1-3.75-.21.47-.09.85-.68,1.32-.4.31-.96.7-1.36,1.01-1.16.91-.15,1.76-.96,2.43l.05.12.41-.33c.13-.07.5-.13.93-.36-.43.23-.68.5-.81.57l-.5.16.07.11c1.01-.3,1.15,1.01,2.55.55.48-.16,1.11-.41,1.59-.57.72-.24.97.07,1.47.16-.23-.36-2.97-1.48-3.68-1.25h0Zm3.34-2.26h0c.67-.32,3.53.45,3.8.78-.51-.02-.8-.3-1.48.03-.46.22-1.05.54-1.51.76-1.33.63-1.64-.65-2.6-.22l-.09-.1.48-.22c.13-.09.34-.39.74-.67-.4.28-.75.38-.88.47l-.37.38-.07-.12c.72-.77-.39-1.48.65-2.53.36-.36.86-.81,1.22-1.17.53-.53.37-.9.51-1.39.22.37,0,3.32-.52,3.85-.18.22-.37.39-.55.51.18-.13.4-.25.67-.35h0Zm3.03-2.66h0c-.25.13-.45.28-.62.43.16-.15.33-.34.48-.58.45-.59.29-3.54.03-3.88-.08.5.13.85-.33,1.44-.31.4-.75.91-1.06,1.32-.9,1.17.3,1.74-.32,2.59l.08.11.32-.42c.11-.1.45-.25.81-.58-.36.33-.53.66-.64.76l-.45.28.1.09c.9-.54,1.37.69,2.61-.1.43-.28.98-.67,1.4-.95.63-.41.96-.17,1.47-.21-.32-.29-3.24-.69-3.87-.3h0Zm2.67-3.02h0c.57-.47,3.53-.44,3.88-.19-.5.1-.85-.09-1.43.4-.39.33-.88.79-1.27,1.12-1.13.94-1.75-.22-2.57.43l-.11-.08.41-.34c.1-.12.23-.46.54-.83.14-.17.28-.38.4-.63.37-.64-.15-3.55-.46-3.86-.02.51.23.82-.15,1.48-.26.43-.63,1-.89,1.44-.74,1.27.51,1.69,0,2.61l.09.1.26-.46c.1-.12.42-.31.73-.68.14-.17.32-.34.56-.5h0Zm2.27-3.33h0c-.21.19-.37.38-.49.57-.26.41-.56.63-.64.76l-.21.49-.11-.08c.39-.98-.91-1.23-.33-2.59.2-.47.5-1.08.7-1.54.3-.69.01-.98-.04-1.48.34.26,1.23,3.08.94,3.77-.09.27-.2.49-.32.68-.27.41-.35.77-.44.89l-.36.39.12.06c.74-.75,1.5.33,2.5-.75.35-.37.78-.89,1.12-1.27.51-.56.89-.41,1.37-.57-.38-.2-3.31.14-3.82.68h0Zm1.83-3.59h0c-.19.21-.32.43-.41.63-.21.44-.47.7-.54.84l-.14.51-.12-.07c.26-1.02-1.06-1.11-.66-2.53.14-.49.36-1.13.5-1.62.21-.73-.11-.97-.22-1.47.37.22,1.6,2.9,1.41,3.62-.05.28-.14.52-.23.72-.21.44-.25.8-.32.94l-.31.43.13.05c.64-.84,1.53.14,2.39-1.06.3-.41.66-.99.95-1.4.44-.62.83-.51,1.29-.74-.4-.16-3.27.55-3.71,1.15h0Zm1.36-3.79h0c-.16.24-.26.46-.33.67-.15.46-.38.75-.43.9l-.08.52-.12-.06c.13-1.05-1.19-.97-.97-2.42.08-.5.22-1.17.29-1.67.12-.75-.23-.95-.4-1.43.4.17,1.96,2.68,1.85,3.41-.02.28-.07.53-.14.74-.15.46-.15.83-.2.98l-.25.46.13.03c.53-.91,1.53-.06,2.23-1.35.24-.45.53-1.06.77-1.51.36-.67.76-.62,1.18-.9-.42-.1-3.18.96-3.53,1.61h0Zm.88-3.93h0c-.13.25-.2.49-.25.71.04-.22.07-.47.05-.75.01-.74-1.85-3.03-2.26-3.15.23.45.6.61.58,1.36-.01.51-.07,1.18-.08,1.69-.04,1.47,1.26,1.23,1.27,2.28l.13.04v-.53c.04-.15.23-.47.32-.94-.1.48-.04.84-.07.99l-.19.49h.13c.41-.96,1.51-.24,2.05-1.61.18-.48.39-1.12.57-1.59.27-.71.67-.71,1.06-1.04-.43-.05-3.03,1.35-3.3,2.04h0Zm.38-4.01h0c.18-.72,2.59-2.43,3.02-2.44-.34.38-.74.43-.92,1.16-.12.49-.25,1.16-.37,1.65-.36,1.43-1.54.85-1.83,1.87h-.13s.13-.51.13-.51c.02-.22-.2-.87.1-1.73h0Zm-.2-.01h0c.18.89-.13,1.5-.14,1.73l.06.53-.13-.02c-.14-1.05-1.39-.64-1.54-2.11-.05-.51-.08-1.18-.13-1.69-.07-.75-.46-.86-.75-1.28.43.07,2.56,2.11,2.64,2.84h0Zm.07-4.01h0c-.06.28-.07.53-.06.75-.01-.22-.05-.47-.14-.74-.17-.72-2.55-2.48-2.98-2.49.33.38.73.44.9,1.18.11.49.23,1.16.34,1.66.33,1.43,1.53.88,1.79,1.9h.13s-.12-.51-.12-.51c0-.15.09-.51.07-.99.03.49.17.83.18.98l-.06.52.13-.02c.15-1.04,1.4-.62,1.58-2.08.06-.5.1-1.18.16-1.68.09-.75.48-.85.77-1.27-.43.06-2.6,2.06-2.69,2.8h0Zm-.64-3.98h0c-.02.28,0,.53.03.75.09.48.03.84.06.99l.18.49h-.13c-.39-.97-1.51-.26-2.02-1.64-.18-.48-.37-1.13-.55-1.6-.26-.71-.66-.72-1.04-1.05.43-.04,3.01,1.4,3.27,2.1.12.25.19.5.23.71.09.48.27.8.3.95v.53s.13-.04.13-.04c.02-1.05,1.32-.79,1.3-2.26,0-.51-.05-1.18-.05-1.69,0-.76.37-.9.6-1.35-.42.11-2.32,2.37-2.32,3.12h0Zm-1.13-3.87h0c.01.28.06.53.13.74.15.46.14.83.18.98l.24.47-.13.03c-.51-.92-1.53-.08-2.21-1.39-.24-.45-.51-1.07-.74-1.52-.35-.67-.75-.63-1.17-.91.42-.1,3.16,1.01,3.51,1.67.15.24.25.47.32.68.15.46.37.76.41.9l.07.52.12-.05c-.11-1.05,1.21-.95,1.01-2.41-.07-.5-.2-1.17-.27-1.67-.1-.75.25-.94.43-1.42-.4.16-2,2.65-1.91,3.38h0Zm-1.61-3.69h0c.05.28.13.52.22.72.2.44.24.81.3.95l.3.43-.13.04c-.62-.85-1.53.11-2.37-1.1-.29-.42-.64-1-.93-1.41-.43-.62-.82-.53-1.27-.76.41-.15,3.26.61,3.69,1.21.18.22.31.43.4.63.2.44.46.71.52.84l.13.51.12-.07c-.24-1.03,1.08-1.09.7-2.52-.13-.49-.34-1.14-.47-1.62-.2-.73.13-.97.25-1.46-.38.21-1.65,2.88-1.47,3.6h0Zm-2.06-3.46h0c.08.27.19.5.31.69.26.41.34.77.42.9l.35.39-.12.06c-.73-.76-1.5.3-2.49-.79-.34-.38-.76-.91-1.1-1.29-.5-.56-.88-.42-1.36-.59.38-.2,3.31.19,3.81.74.21.19.36.39.48.58.26.41.55.64.63.77l.2.49.11-.08c-.37-.99.93-1.22.38-2.58-.19-.47-.48-1.08-.67-1.55-.29-.7,0-.98.06-1.48-.35.26-1.28,3.06-1,3.75h0Zm-2.48-3.17h0c-.36-.65.21-3.55.52-3.85,0,.51-.25.82.13,1.48.25.44.62,1.01.86,1.45.72,1.28-.54,1.68-.05,2.61l-.09.1-.26-.46c-.1-.12-.41-.31-.72-.69.31.38.43.72.53.84l.4.34-.11.07c-.82-.67-1.45.49-2.57-.47-.38-.33-.87-.8-1.25-1.14-.57-.5-.93-.31-1.42-.42.36-.24,3.31-.23,3.87.26.23.16.41.34.55.51-.14-.17-.28-.38-.39-.64h0Zm-2.86-2.84h0c-.44-.6-.23-3.55.04-3.88.07.5-.14.84.31,1.45.3.41.74.93,1.04,1.33.88,1.18-.33,1.73.28,2.6l-.08.11-.31-.42c-.11-.11-.45-.26-.8-.59.35.33.52.66.63.77l.44.29-.1.09c-.89-.56-1.38.67-2.61-.15-.42-.28-.97-.69-1.38-.97-.63-.42-.96-.19-1.46-.24.32-.29,3.26-.64,3.88-.23.25.13.45.29.61.44-.16-.15-.32-.34-.47-.59h0Zm-3.19-2.46h0c-.51-.54-.68-3.49-.45-3.86.14.49-.04.86.49,1.4.35.36.85.83,1.2,1.19,1.02,1.06-.1,1.76.6,2.54l-.07.12-.36-.38c-.12-.09-.48-.2-.87-.49-.18-.13-.39-.26-.66-.36-.67-.33-3.53.39-3.82.72.51-.02.81-.29,1.48.05.45.23,1.04.56,1.5.79,1.32.66,1.65-.62,2.6-.18l.09-.1-.47-.23c-.12-.09-.33-.39-.72-.68-.18-.13-.36-.3-.54-.52h0Zm-3.48-2.03h0c-.57-.47-1.11-3.38-.93-3.77.2.47.07.85.66,1.33.39.32.94.71,1.34,1.03,1.14.93.12,1.76.92,2.44l-.05.12-.41-.33c-.13-.07-.5-.14-.92-.37-.19-.11-.42-.21-.7-.27-.7-.24-3.45.83-3.69,1.19.5-.08.76-.39,1.48-.14.48.17,1.1.43,1.58.6,1.39.48,1.56-.83,2.56-.51l.08-.11-.5-.17c-.13-.07-.38-.35-.8-.59-.19-.11-.4-.25-.6-.45Z"/>
      <path class="cls-2" d="m36.72,3.97c2.12.96,4.2,1.87,6.23,2.72,2.02.85,4.01,1.64,5.99,2.36,1.98.72,3.87,1.36,5.66,1.88,1.8.53,3.62.98,5.47,1.35l1.75.35,2.33.46.05,2.39.04,1.79c.15,6.51-.19,12.71-1.06,18.52-.89,5.88-2.33,11.43-4.41,16.59-2.12,5.26-4.88,10.09-8.37,14.42-3.48,4.33-7.68,8.17-12.68,11.47l-1.28.85-1.71,1.13-1.65-1.2-1.24-.9c-4.93-3.58-9.14-7.58-12.66-11.99-3.51-4.4-6.32-9.23-8.47-14.47-2.11-5.17-3.55-10.71-4.32-16.59-.77-5.86-.89-12.06-.39-18.58l.15-1.9.19-2.54,2.54-.19,1.9-.15c1.23-.09,2.56-.33,3.98-.7,1.49-.38,3.15-.92,4.95-1.58,1.9-.7,3.88-1.5,5.94-2.39,1.98-.86,4.24-1.9,6.71-3.06l.93-.44,1.24-.58,1.24.56.93.42h0Zm8.65,14.81h0c-1.94-.71-3.91-1.49-5.93-2.33-1.52-.63-3.13-1.33-4.81-2.07-1.96.91-3.74,1.71-5.32,2.39-2.05.88-4.06,1.69-6.06,2.42-1.7.62-3.35,1.16-4.93,1.61-.75.21-1.48.4-2.2.56-.15,4.6.06,8.97.64,13.1.68,4.78,1.85,9.23,3.53,13.34,1.66,4.06,3.86,7.86,6.6,11.4,2.32,2.99,5.02,5.76,8.12,8.31,2.97-2.3,5.54-4.89,7.75-7.73,2.65-3.4,4.77-7.17,6.41-11.25,1.7-4.21,2.91-8.77,3.68-13.64.68-4.24,1.02-8.72,1.08-13.4-1.03-.27-2.06-.57-3.11-.88-1.89-.58-3.71-1.19-5.46-1.83Z"/>
      <path class="cls-3" d="m36.93,3.5c.59.27,1.12.51,1.6.72.52.23,1.03.46,1.55.68.5.22,1.01.44,1.54.67.5.21,1.01.43,1.53.65.49.21.99.41,1.5.62.49.2.99.4,1.5.6.51.2,1.01.39,1.49.58.5.19.99.38,1.47.55.52.19,1.01.37,1.47.53.49.17.97.34,1.41.49.44.15.91.3,1.39.45.47.15.93.29,1.36.41.43.13.87.25,1.34.38.46.12.91.24,1.36.35.46.11.91.22,1.36.32.43.1.89.19,1.37.29l1.75.35,2.33.46.2.04.2.04v.21s0,.21,0,.21l.05,2.39.04,1.79c.04,1.64.04,3.25.02,4.84-.02,1.6-.08,3.17-.17,4.72-.09,1.55-.21,3.08-.36,4.59-.15,1.52-.34,3-.56,4.45-.02.16-.05.32-.07.47-.88,5.98-1.3,6.25-1.86,8.76-.32,1.19-.68,2.36-1.06,3.51-.44,1.34-.93,2.67-1.45,3.97-.53,1.33-1.11,2.63-1.73,3.9-.62,1.27-1.28,2.51-1.98,3.73-.7,1.22-1.45,2.4-2.24,3.55-.79,1.15-1.62,2.28-2.5,3.38-.88,1.09-1.8,2.16-2.77,3.19-.97,1.03-1.99,2.03-3.06,3-1.07.97-2.18,1.9-3.34,2.8-1.16.9-2.37,1.76-3.63,2.59l-1.28.84-1.71,1.13-.15.1-.15.1-.14-.1-.14-.11-1.65-1.2-1.24-.9c-1.24-.9-2.44-1.83-3.59-2.78-1.15-.95-2.26-1.93-3.32-2.94-1.06-1.01-2.08-2.04-3.06-3.1-.97-1.06-1.91-2.15-2.79-3.26-.89-1.11-1.73-2.25-2.53-3.41-.8-1.17-1.55-2.36-2.26-3.57h0c-.71-1.22-1.38-2.46-2-3.72-.62-1.27-1.21-2.56-1.75-3.89-.53-1.31-1.02-2.63-1.47-3.98-.45-1.35-.85-2.72-1.21-4.11-.36-1.4-.68-2.81-.96-4.25-.28-1.43-.51-2.89-.71-4.38-.19-1.48-.35-2.98-.46-4.49-.11-1.51-.18-3.05-.22-4.61-.03-1.56-.03-3.14.02-4.73.05-1.61.13-3.22.26-4.85l.15-1.9.19-2.54.02-.22.02-.22.22-.02.22-.02,2.54-.19,1.9-.15c.31-.02.61-.05.91-.09.3-.04.62-.09.95-.15.33-.06.66-.12,1-.2.35-.08.7-.16,1.03-.24.36-.09.74-.2,1.13-.31.39-.11.79-.24,1.2-.36.38-.12.8-.26,1.25-.42.45-.15.89-.31,1.32-.47h0c.49-.18.96-.36,1.43-.54.48-.18.96-.38,1.46-.58.47-.19.97-.4,1.5-.62.56-.24,1.06-.45,1.51-.65.47-.2.98-.43,1.52-.67.54-.24,1.08-.49,1.64-.74.51-.23,1.08-.5,1.71-.79.6-.28,1.21-.56,1.82-.85l.93-.44,1.24-.58h0l.11-.05.11-.05.11.05.11.05,1.24.56.93.42h0Zm1.39,1.19h0c-.4-.18-.78-.35-1.14-.51.4.18.77.35,1.11.5.32.14.65.29.97.43-.31-.14-.62-.28-.95-.42h0Zm3.09,1.35h0l-.06-.03.07.03h0Zm1.03.44h0c-.32-.13-.64-.27-.96-.41.32.14.64.27.96.41h0Zm2.01.83h0l.08.03-.06-.03-.07-.03.05.02h0Zm-.37-.15h0l-.5-.21c.17.07.34.14.5.21h0Zm1.1.45h0c-.18-.07-.36-.14-.54-.22.18.07.36.15.54.22h0Zm1.66.66h0c-.21-.08-.42-.16-.64-.25.21.08.43.17.64.25h0Zm3.58,1.32h0c-.45-.16-.89-.32-1.33-.48.45.16.89.32,1.31.47l.16.06-.14-.05h0Zm8.27,2.41h0c-.47-.11-.93-.21-1.37-.32.47.12.93.22,1.38.32.35.08.72.16,1.1.23-.36-.07-.73-.15-1.11-.24h0Zm5.47,1.1h0l-.2-.04-2.13-.42,2.33.46h0Zm.05,2.39h0l-.05-2.39v.21s.05,2.18.05,2.18h0Zm.06,6.62h0c.02-1.06.02-2.12,0-3.19.01,1.07,0,2.13,0,3.19-.02,1.59-.08,3.16-.17,4.7.09-1.55.14-3.11.17-4.69h0Zm-.52,9.26h0c.11-1.1.21-2.22.28-3.34-.08,1.12-.17,2.23-.28,3.34-.13,1.26-.28,2.49-.45,3.71.17-1.22.32-2.46.45-3.7h0Zm.28-3.35h0c.01-.2.03-.4.04-.61-.01.2-.03.4-.04.61h0Zm.05-.74h0c0-.16.02-.32.03-.48,0,.16-.02.32-.03.48h0Zm-.89,8.52h0c.03-.22.07-.44.1-.65-.03.22-.06.44-.1.65h0Zm-.11.69h0c-.42,2.65-.97,5.29-1.65,7.88.69-2.6,1.23-5.23,1.65-7.88h0Zm-4.15,15.52h0c.05-.12.1-.24.14-.36-.05.12-.09.24-.14.36h0Zm-.71,1.73h0c.05-.12.1-.24.15-.36-.05.12-.1.24-.15.36h0Zm-3.11,6.21h0c.05-.08.09-.16.14-.24-.05.08-.09.16-.14.24h0Zm.53-.93h0c.16-.29.32-.58.47-.87-.16.29-.31.58-.47.87h0Zm-.76,1.33h0c.08-.13.16-.27.23-.4-.08.13-.15.27-.23.4h0Zm-10.24,12.59h0c.07-.06.13-.12.2-.18-.07.06-.13.12-.2.18h0Zm-.61.55h0c.14-.12.27-.24.41-.36-.13.12-.27.24-.41.36h0Zm-9.29,6.77h0l-1.65-1.2,1.5,1.09.14.1.15-.1,1.56-1.03-1.71,1.13h0Zm-3.54-2.58h0c.07.05.15.11.22.16-.07-.05-.15-.11-.22-.16h0Zm.41.3h0c.08.06.17.12.26.19-.09-.06-.17-.12-.26-.19h0Zm-12.36-11.75h0c.14.17.27.34.41.51-.14-.17-.27-.34-.41-.51h0Zm.47.58h0c.05.06.1.12.15.18l-.15-.18h0Zm-3.01-4.01h0c.67.98,1.37,1.93,2.1,2.87-.73-.94-1.43-1.89-2.1-2.87-.7-1.02-1.37-2.06-2-3.12.63,1.06,1.3,2.1,2,3.12h0Zm-2.2-3.46h0c.06.1.12.21.18.31-.06-.1-.12-.21-.18-.31h0Zm-.04-.07h0c-.69-1.18-1.33-2.37-1.94-3.59.61,1.23,1.25,2.42,1.93,3.59h0Zm-5.18-11.5h0c.3.91.62,1.81.96,2.7-.34-.89-.66-1.79-.96-2.7-.43-1.29-.82-2.6-1.16-3.93.35,1.33.74,2.64,1.16,3.93h0Zm-2.9-12.93h0c.01.1.02.19.04.29l-.04-.29h0Zm-.61-13.46h0c-.03.9-.04,1.78-.04,2.67,0-.88.01-1.77.04-2.66.04-1.31.1-2.64.2-3.97-.09,1.34-.16,2.66-.2,3.96h0Zm.24-4.63h0c-.02.2-.03.41-.04.61.01-.2.03-.41.04-.61h0Zm.36-4.64h0l2.54-.19-2.32.18-.22.02v.07s0-.07,0-.07h0Zm5.38-.44h0c-.29.04-.57.07-.84.09.28-.02.56-.05.84-.09.31-.04.63-.09.98-.15-.32.06-.65.11-.98.15h0Zm9.44-2.72h0l-.12.04.12-.04c.43-.16.86-.34,1.31-.51-.43.17-.87.35-1.31.51h0Zm-.12.05h0c-.14.05-.27.1-.41.16.13-.05.27-.1.41-.16h0Zm13.49-5.98h0l-.1.05.1-.05h0Zm5.11,2.86h0c-.52-.23-1.05-.46-1.58-.7-.58-.26-1.1-.49-1.57-.7l-.93-.42-1.02-.46-1.02.48-.93.44c-.62.29-1.22.57-1.8.84-.55.26-1.13.52-1.74.8-.57.26-1.11.51-1.63.74-.51.23-1.03.46-1.54.68-.58.25-1.1.47-1.54.66-.48.2-.98.41-1.5.62-.49.2-.98.39-1.47.58-.49.19-.97.37-1.45.55-.47.17-.91.33-1.33.47-.41.14-.84.28-1.28.43-.42.13-.83.26-1.22.37-.39.11-.78.22-1.16.32-.38.1-.74.18-1.08.26-.35.08-.69.15-1.03.2-.33.06-.66.11-1,.15-.34.04-.66.08-.97.1l-1.9.15-2.09.16-.16,2.09-.15,1.9c-.13,1.63-.21,3.24-.26,4.81-.05,1.58-.05,3.14-.02,4.68.03,1.53.1,3.05.22,4.55.11,1.5.26,2.98.45,4.43.19,1.46.42,2.89.7,4.32.27,1.42.59,2.81.95,4.18.36,1.37.76,2.72,1.2,4.05.44,1.33.92,2.63,1.45,3.91.53,1.29,1.1,2.56,1.72,3.81.62,1.25,1.27,2.47,1.97,3.67h0c.7,1.2,1.44,2.37,2.22,3.51.78,1.14,1.61,2.26,2.48,3.35.87,1.09,1.79,2.16,2.74,3.2.96,1.04,1.96,2.06,3.01,3.05,1.04.99,2.13,1.95,3.27,2.9,1.13.94,2.31,1.86,3.54,2.74l1.24.9,1.36.99,1.41-.93,1.28-.84c1.24-.81,2.42-1.66,3.57-2.55,1.14-.88,2.24-1.8,3.28-2.75,1.04-.94,2.04-1.92,2.99-2.94.95-1.01,1.86-2.05,2.72-3.13.86-1.07,1.68-2.18,2.46-3.31.78-1.13,1.51-2.3,2.2-3.49.69-1.19,1.34-2.41,1.94-3.66.61-1.25,1.17-2.53,1.7-3.83.51-1.27.99-2.58,1.43-3.91.44-1.33.84-2.68,1.2-4.05.36-1.38.69-2.77.98-4.19.29-1.41.54-2.85.76-4.32.22-1.45.4-2.92.55-4.41.15-1.49.27-3,.36-4.54.09-1.54.14-3.11.17-4.68.02-1.58.02-3.18-.02-4.8l-.04-1.79-.04-1.97-1.92-.38-1.75-.35c-.44-.09-.91-.19-1.39-.29-.48-.11-.94-.22-1.39-.33-.46-.11-.92-.23-1.37-.35-.44-.12-.89-.25-1.37-.39-.47-.14-.92-.28-1.37-.42-.44-.14-.91-.29-1.41-.46-.5-.17-.98-.33-1.45-.5-.5-.18-.99-.35-1.46-.52-.51-.19-1.01-.37-1.5-.56-.51-.19-1-.39-1.49-.58-.48-.19-.98-.39-1.5-.6-.5-.2-1-.41-1.52-.63-.49-.21-1-.42-1.53-.65-.5-.22-1.02-.44-1.56-.68h0ZM11.06,52.49h0l-.27-.65c.09.22.18.43.27.65h0Zm38.61,15.22h0l-2,2.25c.69-.73,1.36-1.48,2-2.25h0Zm8.55-13.98h0l-1.15,2.52c.4-.83.78-1.67,1.15-2.52h0Zm-13.03-34.46h0c-.49-.18-.98-.36-1.46-.55h0c-.5-.19-.99-.38-1.48-.57-.51-.2-1.01-.4-1.5-.6-.49-.2-.99-.41-1.5-.62-.34-.14-.73-.3-1.16-.49-.47-.2-.86-.37-1.18-.51-.32-.14-.7-.31-1.16-.51-.41-.18-.77-.34-1.1-.48l-.29.13-.39.18h0c-.7.32-1.34.61-1.91.87-.45.2-.89.4-1.3.58-.43.19-.84.37-1.22.53-.5.21-1,.43-1.53.65-.5.21-1.01.41-1.53.63-.48.19-.99.39-1.52.59-.52.2-1.03.39-1.51.57-.42.15-.84.3-1.28.46-.44.15-.86.29-1.25.42-.4.13-.8.26-1.23.39-.41.13-.82.24-1.21.35-.22.06-.41.11-.57.16-.19.05-.37.1-.55.14-.12.03-.27.07-.45.11-.09.02-.18.04-.26.06-.03,1.04-.04,2.07-.03,3.08,0,1.08.04,2.14.09,3.2.05,1.09.13,2.15.23,3.21.1,1.05.22,2.09.37,3.12.17,1.18.36,2.34.6,3.49.23,1.15.49,2.27.78,3.37h0s0,0,0,0h0c.08.31.16.61.25.92.08.29.17.59.27.91.47,1.56,1,3.07,1.6,4.53h0s0,0,0,0h0c.1.25.22.53.35.84.12.28.25.56.37.83.64,1.42,1.36,2.81,2.14,4.16h0c.15.25.3.51.46.79.17.27.33.53.48.78.83,1.32,1.74,2.61,2.72,3.88h0s0,0,0,0c.17.22.34.43.49.62.16.19.32.4.5.61.87,1.05,1.78,2.06,2.74,3.04.65.66,1.32,1.31,2.01,1.95.65.59,1.31,1.17,1.98,1.74.64-.51,1.27-1.03,1.88-1.57.66-.58,1.29-1.18,1.91-1.79h0s0,0,0,0h0c.18-.18.35-.36.53-.54.17-.18.34-.36.52-.55.88-.94,1.71-1.92,2.5-2.93.66-.84,1.28-1.71,1.87-2.59.59-.89,1.15-1.79,1.67-2.72.53-.93,1.02-1.88,1.49-2.85.46-.97.9-1.96,1.31-2.97.42-1.05.81-2.11,1.17-3.19.36-1.08.69-2.19.99-3.32.3-1.13.58-2.28.83-3.45.25-1.17.47-2.36.66-3.56.17-1.04.31-2.11.44-3.2.13-1.08.24-2.18.33-3.29.09-1.09.16-2.19.21-3.28.05-1.04.08-2.09.1-3.14-.15-.04-.31-.08-.49-.13-.29-.08-.52-.14-.68-.19-.22-.06-.48-.14-.76-.22-.23-.07-.5-.15-.81-.24-.49-.15-.96-.3-1.42-.44-.47-.15-.93-.3-1.38-.45-.46-.16-.92-.31-1.36-.47-.45-.16-.89-.32-1.32-.47h0Zm.18-.49h0c.44.16.87.32,1.32.47.25.09.5.17.76.26-.25-.08-.5-.17-.74-.26-.46-.16-.91-.32-1.33-.48h0Zm-2.5-.94h0c.35.14.7.27,1.04.4l-1.04-.4h0Zm-4.59-1.87h0c.34.14.73.31,1.16.49-.33-.14-.71-.3-1.15-.48-.38-.16-.72-.31-1.01-.43.39.17.72.31.99.43h0Zm-2.34-1.01h0c.33.14.72.31,1.16.5-.34-.15-.75-.33-1.23-.53-.38-.17-.73-.32-1.04-.46.42.19.79.35,1.11.49h0Zm-1.42-.53h0l.11-.05.04.02-.04-.02-.18.08.07-.03h0Zm-.39.18h-.02s.11-.04.11-.04l-.09.04h0Zm-.39.18h0s.31-.14.31-.14c-.27.12-.55.25-.85.39-.42.19-.79.36-1.12.51.57-.26,1.12-.51,1.66-.76h0Zm-3.21,1.45h0l-.08.04.09-.04.33-.15-.35.15h0Zm.76-.34h0c.14-.06.29-.13.43-.19-.15.07-.29.13-.43.19h0Zm-1.58.7h0c.23-.1.48-.21.73-.32-.24.11-.49.21-.73.32h0Zm-1.5.64h0c.22-.09.44-.18.66-.28-.22.09-.44.18-.66.28h0Zm-.44.18h.02s0,0,0,0h-.01Zm-3,1.2h0c.48-.18.98-.38,1.51-.59-.48.19-.99.39-1.51.59-.47.18-.93.36-1.38.52.47-.17.93-.35,1.38-.52h0Zm-2.77,1.02h0c.29-.1.59-.2.89-.32-.29.1-.59.21-.89.31-.32.11-.63.22-.93.32.32-.1.62-.21.92-.31h0Zm-2.46.8h0c.33-.1.68-.21,1.05-.33-.34.11-.69.22-1.05.33-.3.09-.59.18-.88.26.3-.08.59-.17.88-.26h0Zm-2.76.76h0c.09-.02.21-.05.33-.08-.13.03-.28.07-.45.11-.11.03-.21.05-.3.07l.41-.1h0Zm-.65.15h0l.09-.02-.09.02h0Zm-.04,3.5h0c0-.95,0-1.91.03-2.88-.03,1.25-.04,2.49-.02,3.71,0,.47.02.94.04,1.41v.18c-.02-.8-.04-1.6-.05-2.42h0Zm.03-2.89h0c0-.13,0-.27.01-.41,0,.14,0,.27-.01.41h0Zm.06,6.11h0v-.31c0,.1,0,.21,0,.31h0Zm.16,2.4h0c-.01-.14-.02-.27-.03-.41.01.14.02.27.03.41h0Zm-.12-1.65h0c0-.11-.01-.23-.02-.34,0,.11.01.23.02.34h0Zm.56,5.62h0s0,0,0,0h0s0,0,0,0h0Zm-.03-.21h0c-.05-.38-.1-.77-.15-1.15.02.17.04.33.06.48.03.21.06.44.09.67h0Zm-.2-1.55h0s0,0,0,0h0Zm0,0h0l-.03-.24c0,.08.02.16.03.24h0Zm.26,2.01h0c-.01-.08-.02-.16-.04-.25.01.08.02.16.04.25h0Zm1.35,6.67h0s0,0,0,0h0Zm5.04,12.32h0l.03.05-.03-.05h0Zm.95,1.58h0c-.08-.12-.15-.24-.22-.35.58.94,1.2,1.87,1.85,2.77.16.23.35.48.55.75.05.07.1.14.16.21l-2.34-3.38h0Zm2.75,3.92h0,0Zm0,0h0l-.14-.18.14.18h0Zm.5.63h0l-.38-.47c.12.15.24.31.38.47h0Zm.26.32h0l-.26-.32c.09.11.17.21.26.32h0Zm2.47,2.81h0l-.07-.08.05.06.02.02h0Zm-.56-.6h0s-.11-.13-.11-.13l.12.13h0Zm4.82,4.63h-.02s0,0,0,0h0Zm-.63-.54c-.08-.07-.16-.14-.23-.2.08.07.15.13.23.2h0Zm1.43.95h0l-.16.13h0c1.07-.83,2.08-1.69,3.05-2.59.11-.1.22-.21.33-.31-.37.36-.76.71-1.15,1.05-.67.59-1.35,1.16-2.07,1.72h0Zm3.5-3.05h0l-.06.06h0s.06-.06.06-.06h0Zm-.07.07h0c-.06.06-.12.12-.18.17.06-.06.12-.12.18-.17h0Zm4.15-4.62h0v.02s0-.02,0-.02h0Zm-.1.13h0c-.59.75-1.2,1.48-1.84,2.19.34-.38.67-.76.99-1.15.17-.2.33-.39.48-.58.12-.14.24-.3.37-.46h0Zm-1.85,2.21h0c-.08.09-.16.18-.25.27.08-.09.17-.18.25-.27h0Zm3.84-4.96h0c.18-.26.35-.53.52-.79-.17.27-.35.54-.52.8-.47.71-.97,1.41-1.48,2.09.52-.68,1.01-1.38,1.49-2.1h0Zm1.63-2.64h0c-.1.17-.19.33-.29.5.1-.17.19-.33.29-.5h0Zm-.37.63h0c-.14.24-.29.48-.44.72.15-.24.29-.48.44-.72h0Zm1.94-3.62h0c-.47.98-.97,1.94-1.51,2.88.53-.94,1.04-1.9,1.51-2.88.43-.89.83-1.79,1.21-2.72l-1.21,2.72h0Zm2.5-6.22h0c-.31.94-.65,1.86-1,2.77.36-.91.69-1.83,1-2.77.32-.96.62-1.95.9-2.96-.28,1-.57,1.99-.9,2.96h0Zm-1.05,2.91h0c-.04.11-.08.21-.13.32.04-.11.08-.21.13-.32h0Zm2.83-9.43h0c-.2.94-.42,1.87-.66,2.78.24-.92.46-1.84.66-2.78h0Zm-.68,2.83h0c-.03.11-.06.23-.09.34.03-.11.06-.23.09-.34h0Zm.79-3.38h0l-.05.25.05-.25h0Zm1.59-13.17h0c-.04.8-.08,1.58-.14,2.36.06-.81.1-1.63.14-2.45,0-.16.01-.31.02-.47,0,.19-.02.37-.02.56h0Zm-.09-3.61h0l.19.05h0c-.22-.06-.48-.13-.76-.21-.26-.07-.48-.13-.67-.18.23.07.41.12.55.15.19.05.42.11.68.18h0Zm-2.91-.83h0l.21.06-.21-.06h0Zm-8.2-3.43h0c-.48-.19-.97-.39-1.48-.59-.51-.21-1.01-.41-1.5-.62-.42-.17-.8-.33-1.14-.48-.31-.13-.71-.3-1.19-.51-.47-.2-.87-.38-1.23-.53-.36-.16-.77-.34-1.24-.55l-.11-.05-.11-.05-.11.05-.11.05c-.54.25-1.01.47-1.43.66-.41.19-.87.39-1.37.62-.44.2-.86.39-1.29.57-.41.18-.81.36-1.22.53-.53.23-1.04.44-1.53.65-.52.22-1.02.42-1.5.61-.52.21-1.03.41-1.5.59-.48.19-.98.37-1.49.56-.43.16-.85.31-1.26.45-.4.14-.81.28-1.24.42-.43.14-.83.27-1.21.38-.39.12-.79.24-1.18.35-.17.05-.35.1-.54.15-.17.05-.36.09-.56.14-.23.06-.41.1-.55.14-.17.04-.35.08-.53.12l-.19.04-.19.04v.2s-.01.2-.01.2c-.05,1.47-.06,2.93-.03,4.35,0,.48.02.95.04,1.42.01.32.02.62.04.92v.07c.08,1.59.21,3.14.38,4.65.03.26.07.56.11.88.04.31.08.6.12.88h0c.17,1.22.37,2.4.6,3.56.23,1.16.5,2.3.79,3.43.29,1.12.62,2.22.98,3.3.36,1.08.75,2.14,1.18,3.18.42,1.03.87,2.04,1.36,3.03.49,1,1.01,1.97,1.56,2.93.8,1.38,1.67,2.73,2.61,4.04.2.28.39.53.56.76.19.25.38.5.57.75h0c.84,1.08,1.73,2.14,2.68,3.17.18.2.37.39.56.6.19.2.38.39.57.59h0s0,0,0,0h0c.98,1,2.01,1.98,3.1,2.93.22.19.44.38.64.55.2.17.42.35.65.54h0,0s0,0,0,0l.16.13.16.13.16-.13.16-.13c1.08-.83,2.1-1.71,3.08-2.62.19-.17.38-.35.56-.54.19-.18.37-.36.55-.54h0s0,0,0,0c.94-.94,1.83-1.92,2.67-2.92.16-.19.32-.39.49-.59.17-.21.33-.41.47-.6h0c.67-.86,1.3-1.74,1.91-2.65.6-.9,1.17-1.83,1.71-2.78.54-.95,1.05-1.92,1.52-2.91.48-.99.92-2,1.34-3.03.43-1.06.82-2.14,1.19-3.25.37-1.11.71-2.24,1.01-3.38.31-1.14.59-2.31.84-3.5.25-1.18.47-2.39.67-3.62.17-1.08.32-2.16.45-3.25.13-1.1.24-2.2.33-3.33.09-1.11.16-2.24.21-3.4.05-1.14.08-2.31.1-3.49v-.2s0-.2,0-.2l-.19-.05-.2-.05c-.28-.07-.53-.14-.76-.2-.2-.05-.46-.13-.78-.22-.39-.11-.77-.22-1.13-.33l-.21-.06h0s-.21-.06-.21-.06h0s0,0,0,0h0c-.46-.14-.92-.28-1.39-.43-.46-.15-.92-.3-1.37-.45-.45-.15-.89-.3-1.34-.46-.42-.15-.86-.31-1.32-.48-.48-.17-.96-.36-1.46-.54h0c-.48-.18-.97-.37-1.47-.57h0Zm1.28,1.05h0l-1.03-.4c.34.13.69.27,1.03.4h0Zm0,0h0s0,0,0,0h0Zm3.91,1.41h0l-.26-.09c.09.03.17.06.26.09h0Zm4.37,18.84h0c.02-.09.04-.17.05-.26l-.05.26h0Zm-36.02-10.47h0v.07s0-.07,0-.07Z"/>
      <path class="cls-1" d="m36.72,3.97c2.12.96,4.2,1.87,6.23,2.72,2.02.85,4.01,1.64,5.99,2.36.78.29,1.55.56,2.3.81-3.71,1.84-7.13,4.29-10.16,7.26-.54-.22-1.08-.44-1.63-.67-1.52-.63-3.13-1.33-4.81-2.07-1.96.91-3.74,1.71-5.32,2.39-2.05.88-4.06,1.69-6.06,2.42-1.7.62-3.35,1.16-4.93,1.61-.75.21-1.48.4-2.2.56-.15,4.6.06,8.97.64,13.1.68,4.78,1.85,9.23,3.53,13.34,1.66,4.06,3.86,7.87,6.6,11.4.13.17.26.33.39.5,1.02,7.62,3.64,14.62,7.46,20.55h0s-1.65-1.19-1.65-1.19l-1.24-.9c-4.93-3.58-9.14-7.58-12.66-11.99-3.51-4.4-6.32-9.23-8.47-14.47-2.11-5.17-3.55-10.71-4.32-16.59-.77-5.86-.89-12.06-.39-18.58l.15-1.9.19-2.54,2.54-.19,1.9-.15c1.23-.09,2.56-.33,3.98-.7,1.49-.38,3.15-.92,4.95-1.58,1.9-.7,3.88-1.5,5.94-2.39,1.97-.86,4.24-1.9,6.71-3.06l.93-.44,1.24-.58,1.24.56.93.42Z"/>
      <path class="cls-10" d="m36.83,3.74c1.08.49,2.13.96,3.15,1.4,1.03.45,2.05.89,3.07,1.32,1,.42,2,.83,3.01,1.23,1,.4,1.99.77,2.97,1.13,1,.37,1.97.71,2.89,1.01.94.31,1.86.6,2.75.86.89.26,1.79.51,2.71.73.9.22,1.82.43,2.74.61l1.75.35,2.33.46.2.04v.21s.06,2.39.06,2.39l.04,1.79c.07,3.27.03,6.45-.15,9.54-.17,3.1-.48,6.11-.91,9.02-.11.74-.23,1.48-.36,2.21-.26,1.75-.64,3.52-1.12,5.3-.09.36-.18.72-.28,1.08-.73,2.78-1.62,5.46-2.66,8.05-1.06,2.64-2.29,5.17-3.69,7.59-1.4,2.42-2.97,4.72-4.72,6.9-1.75,2.17-3.68,4.23-5.8,6.15-2.12,1.92-4.43,3.71-6.94,5.37l-1.28.85-1.71,1.13-.15.1-.14-.1-1.65-1.2-1.24-.9c-2.47-1.8-4.77-3.7-6.88-5.71-2.12-2.01-4.06-4.12-5.82-6.33-1.76-2.21-3.35-4.53-4.77-6.95-1.41-2.42-2.66-4.95-3.74-7.58-1.06-2.6-1.95-5.29-2.67-8.06-.72-2.78-1.28-5.64-1.66-8.59-.39-2.94-.61-5.96-.68-9.07-.07-3.11.03-6.3.28-9.56l.15-1.9.19-2.54.02-.22.22-.02,2.54-.19,1.9-.15c.6-.05,1.23-.13,1.89-.25.67-.12,1.35-.27,2.05-.45.74-.19,1.52-.42,2.34-.68.82-.26,1.68-.56,2.58-.89.95-.35,1.91-.72,2.9-1.12,1-.4,2-.83,3.02-1.27.98-.43,2.04-.9,3.16-1.41,1.1-.5,2.29-1.05,3.54-1.64l.93-.44,1.24-.58.11-.05.11.05,1.24.56.93.42h0Zm2.94,1.88h0c-1.06-.46-2.11-.93-3.15-1.4l-.93-.42-1.13-.51-1.13.53-.93.44c-1.22.57-2.4,1.12-3.54,1.65-1.12.51-2.18.98-3.17,1.42-1.04.45-2.05.88-3.03,1.27-.99.4-1.96.78-2.92,1.13-.9.33-1.77.63-2.6.9-.83.26-1.62.5-2.37.69-.73.19-1.42.34-2.09.46-.67.12-1.32.2-1.94.25l-1.9.15-2.32.18-.18,2.32-.15,1.9c-.25,3.26-.34,6.43-.28,9.51.06,3.09.29,6.09.67,9.02.38,2.93.93,5.77,1.65,8.53.72,2.76,1.6,5.42,2.65,8,1.06,2.6,2.3,5.11,3.7,7.52,1.4,2.4,2.98,4.7,4.72,6.89,1.75,2.2,3.68,4.29,5.77,6.28,2.1,1.99,4.37,3.88,6.83,5.66l1.24.9,1.5,1.09,1.56-1.03,1.28-.85c2.49-1.64,4.78-3.41,6.88-5.32,2.1-1.9,4.01-3.94,5.74-6.09,1.73-2.16,3.29-4.44,4.67-6.83,1.39-2.4,2.6-4.91,3.66-7.52,1.04-2.57,1.91-5.24,2.64-7.99.73-2.76,1.31-5.61,1.75-8.54.44-2.9.74-5.89.91-8.97.17-3.09.22-6.26.15-9.5l-.04-1.79-.05-2.18-2.13-.42-1.75-.35c-.93-.18-1.85-.39-2.77-.62-.91-.23-1.82-.47-2.73-.74-.9-.26-1.82-.55-2.77-.87-.96-.32-1.93-.66-2.91-1.02-1-.37-1.99-.74-2.99-1.14-.99-.39-2-.8-3.02-1.23-1-.42-2.03-.86-3.08-1.32h0Zm5.52,13.42h0c-.97-.35-1.95-.73-2.94-1.12-.99-.39-1.99-.79-3-1.21-.77-.32-1.55-.65-2.34-.99-.76-.33-1.55-.67-2.37-1.03-.95.44-1.85.85-2.7,1.23-.9.4-1.74.77-2.52,1.11-1.01.44-2.03.86-3.05,1.27-1.01.4-2.02.79-3.02,1.16-.86.31-1.7.61-2.52.87-.82.27-1.63.51-2.43.74-.39.11-.76.21-1.12.3-.3.07-.6.15-.9.22-.07,2.22-.05,4.39.05,6.5.11,2.17.3,4.29.6,6.35.34,2.38.8,4.67,1.38,6.89.59,2.22,1.3,4.35,2.13,6.39.82,2.02,1.78,3.97,2.88,5.87,1.09,1.89,2.32,3.71,3.69,5.47,1.16,1.49,2.41,2.92,3.75,4.3,1.3,1.33,2.69,2.61,4.17,3.84,1.42-1.11,2.74-2.28,3.97-3.51,1.28-1.28,2.47-2.63,3.57-4.04,1.32-1.69,2.5-3.48,3.56-5.34,1.06-1.87,2-3.82,2.81-5.85.84-2.09,1.57-4.28,2.18-6.54.61-2.27,1.1-4.62,1.49-7.04.34-2.11.59-4.28.77-6.51.17-2.17.28-4.39.31-6.64-.46-.12-.91-.25-1.36-.37-.49-.14-1.01-.29-1.57-.46-.96-.29-1.88-.59-2.79-.89-.92-.31-1.81-.62-2.68-.94h0Zm-2.75-1.6h0c-.98-.39-1.98-.79-2.99-1.21-.75-.31-1.53-.64-2.34-.99-.81-.35-1.64-.71-2.47-1.08l-.11-.05-.11.05c-.97.45-1.91.88-2.8,1.28-.88.4-1.72.77-2.51,1.11-1.03.44-2.05.87-3.04,1.26-1.01.4-2.01.79-3,1.15-.85.31-1.68.6-2.5.87-.82.27-1.63.51-2.41.73-.36.1-.73.2-1.1.29-.38.1-.74.18-1.09.26l-.19.04v.2c-.08,2.31-.07,4.56.04,6.74.11,2.19.31,4.33.6,6.4.34,2.4.8,4.71,1.39,6.95.59,2.23,1.31,4.38,2.15,6.46.84,2.05,1.8,4.02,2.91,5.93,1.11,1.91,2.35,3.75,3.73,5.53,1.16,1.5,2.43,2.94,3.79,4.34,1.36,1.39,2.82,2.73,4.37,4.01l.16.13.16-.13c1.49-1.16,2.88-2.39,4.18-3.68,1.3-1.3,2.5-2.66,3.61-4.09,1.33-1.71,2.53-3.51,3.6-5.4,1.07-1.89,2.02-3.86,2.84-5.91.85-2.12,1.58-4.32,2.2-6.6.61-2.28,1.11-4.65,1.5-7.09.34-2.13.6-4.32.78-6.56.18-2.23.28-4.53.31-6.88v-.2s-.19-.05-.19-.05c-.5-.13-1.01-.27-1.54-.42-.54-.15-1.06-.31-1.56-.46-.94-.29-1.86-.58-2.78-.89-.9-.3-1.79-.61-2.67-.94-.97-.35-1.95-.73-2.93-1.11Z"/>
      <g>
        <path class="cls-5" d="m35.5,6.67c4.28,1.93,8.41,3.7,12.42,5.16,3.96,1.45,7.81,2.61,11.59,3.36"/>
        <polyline class="cls-5" points="59.51 15.2 61.26 15.54 61.3 17.33"/>
        <path class="cls-5" d="m61.3,17.33c.28,12.64-1.29,24.1-5.26,33.95-4.02,9.98-10.48,18.3-19.93,24.52"/>
        <polyline class="cls-5" points="36.11 75.81 34.82 76.65 33.59 75.75"/>
        <path class="cls-5" d="m33.59,75.75c-9.42-6.85-16.07-15.25-20.13-25.17-4.03-9.86-5.47-21.15-4.49-33.83"/>
        <polyline class="cls-5" points="8.97 16.75 9.11 14.84 11.02 14.7"/>
        <path class="cls-5" d="m11.02,14.7c2.74-.21,6-1.09,9.72-2.45,3.82-1.4,8.14-3.32,12.9-5.56"/>
        <polyline class="cls-5" points="33.64 6.69 34.57 6.25 35.5 6.67"/>
        <path class="cls-5" d="m46.39,16.01c-3.83-1.4-7.74-3.06-11.78-4.87-4.49,2.1-8.62,3.91-12.36,5.28-3.29,1.2-6.28,2.07-8.98,2.48-.66,11.27.72,21.29,4.29,30.01,3.55,8.69,9.3,16.14,17.39,22.32,7.95-5.59,13.46-12.9,16.96-21.6,3.56-8.83,5.07-19.09,4.98-30.45-3.45-.79-6.94-1.87-10.5-3.18"/>
        <path class="cls-4" d="m35.5,6.67c4.28,1.93,8.41,3.7,12.42,5.16,3.96,1.45,7.81,2.61,11.59,3.36l1.75.35.04,1.79c.28,12.64-1.29,24.1-5.26,33.95-4.02,9.98-10.48,18.3-19.93,24.52l-1.1.72v-5.33c7.92-5.59,13.41-12.89,16.91-21.56,3.56-8.83,5.07-19.09,4.98-30.45-3.45-.79-6.94-1.87-10.5-3.18-3.7-1.35-7.48-2.95-11.38-4.69v-4.87l.49.22h0Zm-.49,69.86h0v-5.33l-.05.04c-8.09-6.18-13.84-13.63-17.39-22.32-3.56-8.72-4.94-18.74-4.29-30.01,2.69-.42,5.69-1.28,8.98-2.48,3.74-1.37,7.86-3.18,12.36-5.28l.4.18v-4.87l-.43-.2-.93.44c-4.76,2.24-9.08,4.16-12.9,5.56-3.72,1.36-6.98,2.24-9.72,2.45l-1.9.15-.15,1.9c-.97,12.68.46,23.97,4.49,33.83,4.05,9.92,10.7,18.33,20.13,25.17l1.24.9.18-.12Z"/>
      </g>
      <path class="cls-11" d="m47.53,14.56c-2.34-.86-4.73-1.8-7.16-2.81-1.83-.76-3.78-1.6-5.82-2.51-2.36,1.1-4.52,2.07-6.42,2.89-2.47,1.06-4.9,2.04-7.32,2.93-2.06.75-4.05,1.41-5.96,1.94-.9.25-1.79.48-2.66.67-.18,5.56.07,10.84.78,15.83.82,5.77,2.23,11.15,4.27,16.13,2.01,4.91,4.66,9.51,7.98,13.77,2.81,3.61,6.07,6.96,9.82,10.05,3.58-2.78,6.69-5.91,9.36-9.34,3.2-4.11,5.76-8.66,7.75-13.6,2.05-5.09,3.51-10.6,4.45-16.49.82-5.13,1.24-10.54,1.31-16.19-1.24-.33-2.49-.68-3.76-1.07-2.29-.7-4.48-1.44-6.59-2.21Z"/>
      <path class="cls-6" d="m47.37,15.01c-1.17-.43-2.35-.88-3.56-1.35-1.2-.47-2.41-.96-3.62-1.47-.94-.39-1.88-.79-2.84-1.2-.9-.39-1.83-.8-2.79-1.22-1.11.51-2.18,1-3.19,1.46-1.09.49-2.11.94-3.05,1.34-1.22.52-2.45,1.04-3.69,1.53-1.22.49-2.44.96-3.66,1.4-1.04.38-2.06.73-3.05,1.06-.99.32-1.97.62-2.95.89-.48.13-.93.25-1.35.36-.32.08-.64.16-.97.24-.08,2.64-.06,5.21.07,7.72.13,2.62.37,5.18.72,7.66.41,2.87.96,5.64,1.66,8.31.71,2.67,1.56,5.24,2.57,7.71.99,2.43,2.15,4.79,3.47,7.07,1.32,2.27,2.8,4.47,4.44,6.59,1.39,1.8,2.9,3.52,4.52,5.18,1.54,1.57,3.18,3.09,4.93,4.55,1.67-1.31,3.23-2.7,4.68-4.15,1.54-1.54,2.97-3.16,4.3-4.87,1.59-2.04,3.02-4.19,4.29-6.43,1.28-2.25,2.41-4.6,3.39-7.05,1.02-2.52,1.89-5.16,2.62-7.89.74-2.74,1.33-5.57,1.8-8.49.41-2.54.71-5.17.93-7.86.21-2.58.33-5.21.37-7.89-.52-.14-1.02-.28-1.52-.42-.58-.17-1.21-.35-1.9-.56-1.16-.35-2.28-.71-3.38-1.08-1.11-.37-2.19-.75-3.24-1.14h0Zm-3.21-2.24h0c1.18.47,2.36.91,3.54,1.35h0c1.06.39,2.13.77,3.22,1.13,1.1.37,2.22.73,3.35,1.07.58.18,1.21.36,1.88.55.64.18,1.26.35,1.86.51l.36.1v.37c-.04,2.85-.16,5.63-.38,8.32-.22,2.7-.53,5.35-.94,7.94-.47,2.96-1.08,5.83-1.82,8.59-.74,2.76-1.63,5.43-2.66,8-1,2.49-2.15,4.88-3.45,7.16-1.3,2.29-2.76,4.48-4.36,6.55-1.34,1.73-2.8,3.38-4.38,4.96-1.58,1.57-3.26,3.07-5.07,4.47l-.3.23-.3-.24c-1.89-1.56-3.65-3.18-5.3-4.86-1.65-1.69-3.18-3.45-4.59-5.26-1.67-2.15-3.17-4.38-4.51-6.7-1.34-2.31-2.51-4.71-3.53-7.19-1.03-2.51-1.9-5.12-2.61-7.82-.71-2.71-1.28-5.51-1.69-8.42-.36-2.51-.6-5.09-.73-7.75-.13-2.65-.15-5.37-.05-8.17v-.37s.37-.08.37-.08c.42-.09.85-.2,1.31-.31.46-.12.91-.23,1.33-.35.94-.26,1.91-.56,2.91-.88.99-.32,2-.67,3.02-1.05,1.2-.44,2.41-.91,3.63-1.39,1.19-.48,2.42-.99,3.67-1.53.97-.42,1.98-.86,3.03-1.34,1.07-.48,2.2-1,3.38-1.55l.2-.09.2.09c1.01.45,2,.88,2.98,1.3.99.43,1.93.83,2.83,1.2,1.22.51,2.42.99,3.61,1.46Z"/>
      <path class="cls-8" d="m47.53,14.56c-2.34-.86-4.73-1.8-7.16-2.81-1.83-.76-3.78-1.6-5.82-2.51-2.36,1.1-4.52,2.07-6.42,2.89-2.47,1.06-4.9,2.04-7.32,2.93-2.06.75-4.05,1.41-5.96,1.94-.9.25-1.79.48-2.66.67-.18,5.56.07,10.84.78,15.83.82,5.77,2.23,11.15,4.27,16.13,2.01,4.91,4.66,9.51,7.98,13.77,2.81,3.61,6.07,6.96,9.82,10.05,3.58-2.78,6.69-5.91,9.36-9.34,3.2-4.11,5.76-8.66,7.75-13.6,2.05-5.09,3.51-10.6,4.45-16.49.82-5.13,1.24-10.54,1.31-16.19-1.24-.33-2.49-.68-3.76-1.07-2.29-.7-4.48-1.44-6.59-2.21Z"/>
    </g>
    <path class="cls-9" d="m27.42,61.11l.64-.41.74.26-.19-.73.48-.62-.76-.05-.44-.64-.28.71-.75.22.58.48-.02.78h0Zm15.17,0h0l-.03-.76.6-.5-.73-.2-.3-.72-.42.63-.78.06.47.59-.18.76.71-.27.66.41h0Zm-3.66,1.51h0l.16-.74.71-.33-.65-.38-.1-.78-.57.5-.77-.14.3.69-.38.68.75-.07.54.57h0Zm-3.93.52h0l.35-.67.77-.14-.53-.54.11-.77-.68.34-.7-.34.11.75-.54.56.75.12.37.69h0Zm-3.93-.52h0l.51-.56.78.06-.37-.66.3-.72-.74.15-.59-.51-.08.75-.67.41.69.31.18.76Z"/>
  </g>
  <path class="cls-12" d="m18.44,21.08h.82v4.55h-.82v-4.55Zm1.52,0h.58l1.11,2.6v-2.6h.69v4.55h-.55l-1.11-2.72v2.72h-.71v-4.55Zm3.52.61h-.73v-.61h2.27v.61h-.71v3.94h-.83v-3.94Zm1.96-.61h1.91v.58h-1.09v1.31h.85v.58h-.85v1.51h1.1v.57h-1.92v-4.55Zm2.41,0h1.1c.48,0,.84.09,1.07.27.24.18.35.49.35.94,0,.29-.04.52-.13.71s-.23.31-.44.4l.64,2.24h-.83l-.55-2.09h-.39v2.09h-.83v-4.55Zm1.09,1.95c.24,0,.4-.05.5-.16.1-.11.15-.29.15-.53s-.04-.41-.13-.52c-.09-.11-.25-.16-.48-.16h-.31v1.38h.26Zm2.06-1.95h.58l1.11,2.6v-2.6h.69v4.55h-.55l-1.11-2.72v2.72h-.71v-4.55Zm3.75,0h.89l.91,4.55h-.77l-.18-1.05h-.79l-.19,1.05h-.78l.91-4.55Zm.76,2.97l-.31-1.91-.31,1.91h.62Zm1.74-2.36h-.73v-.61h2.27v.61h-.71v3.94h-.83v-3.94Zm1.98-.61h.82v4.55h-.82v-4.55Zm1.75,4.24c-.2-.25-.3-.62-.3-1.11v-1.71c0-.48.1-.85.3-1.1.2-.25.54-.37,1.01-.37s.8.12,1.01.37c.2.25.3.61.3,1.1v1.71c0,.48-.1.85-.31,1.11-.2.25-.54.38-1,.38s-.81-.13-1.01-.38Zm1.38-.41c.06-.12.1-.28.1-.51v-2.1c0-.22-.03-.39-.09-.5-.06-.11-.19-.17-.37-.17s-.31.06-.38.17-.1.28-.1.5v2.1c0,.22.03.39.1.51s.19.17.38.17.31-.06.37-.17Zm1.55-3.83h.58l1.11,2.6v-2.6h.69v4.55h-.55l-1.11-2.72v2.72h-.71v-4.55Zm3.75,0h.89l.91,4.55h-.77l-.18-1.05h-.79l-.19,1.05h-.78l.91-4.55Zm.76,2.97l-.31-1.91-.31,1.91h.62Zm1.5-2.97h.83v3.99h1.11v.57h-1.93v-4.55Zm-31.31,6.53h2.17c.74,0,1.32.1,1.75.3.42.2.72.51.9.92.18.41.27.96.27,1.64v3.34c0,.7-.09,1.26-.27,1.69-.18.43-.47.75-.89.97-.42.22-.98.32-1.69.32h-2.23v-9.18Zm2.19,8.02c.37,0,.64-.06.81-.19.17-.13.27-.31.32-.54s.07-.57.07-1.03v-3.51c0-.41-.03-.72-.08-.93-.05-.21-.16-.37-.33-.47-.17-.1-.44-.15-.8-.15h-.5v6.83h.52Zm4.17-8.02h1.66v9.18h-1.66v-9.18Zm3.5,8.5c-.38-.54-.57-1.32-.57-2.34v-3.08c0-1.05.2-1.84.59-2.38.39-.53,1.07-.8,2.03-.8.91,0,1.56.22,1.95.67s.59,1.12.59,2v.48h-1.6v-.52c0-.33-.02-.6-.06-.79-.04-.2-.13-.35-.26-.45-.13-.11-.33-.16-.6-.16-.28,0-.49.07-.62.2-.14.14-.22.31-.27.52-.04.21-.06.49-.06.83v3.84c0,.52.07.91.21,1.17.14.26.4.39.79.39s.64-.14.79-.41.22-.68.22-1.22v-.86h-.99v-1.05h2.49v4.66h-1.09l-.11-.9c-.29.68-.81,1.02-1.55,1.02-.87,0-1.5-.27-1.88-.81Zm5.96-8.5h1.66v9.18h-1.66v-9.18Zm3.99,1.24h-1.46v-1.24h4.57v1.24h-1.43v7.95h-1.68v-7.95Zm5.09-1.24h1.79l1.84,9.18h-1.55l-.36-2.12h-1.6l-.37,2.12h-1.58l1.84-9.18Zm1.53,6l-.62-3.86-.62,3.86h1.25Zm3.02-6h1.67v8.04h2.23v1.15h-3.9v-9.18Zm-29.86,11.01h.89l.49,3.81.61-3.79h.73l.63,3.79.48-3.81h.88l-.82,5.88h-.87l-.65-3.94-.65,3.94h-.89l-.83-5.88Zm5.38,0h2.47v.75h-1.4v1.69h1.1v.75h-1.1v1.95h1.41v.73h-2.48v-5.88Zm3.1,0h1.07v5.14h1.43v.73h-2.5v-5.88Zm3.05,0h1.07v5.14h1.43v.73h-2.5v-5.88Zm3.02,3.16h1.75v.67h-1.75v-.67Zm2.6-3.16h1.45c.56,0,.98.11,1.28.34s.44.62.44,1.17c0,.36-.07.64-.22.84-.14.2-.36.32-.63.37.68.13,1.02.61,1.02,1.45,0,.57-.14.99-.41,1.28-.28.29-.68.43-1.23.43h-1.7v-5.88Zm1.44,2.4c.31,0,.52-.07.64-.21.11-.14.17-.36.17-.67s-.07-.5-.22-.61c-.15-.11-.39-.16-.74-.16h-.22v1.65h.37Zm.04,2.72c.31,0,.53-.08.65-.23.12-.15.18-.4.18-.74s-.07-.61-.2-.77-.36-.24-.67-.24h-.38v1.98h.41Zm2.56-5.12h2.47v.75h-1.4v1.69h1.1v.75h-1.1v1.95h1.41v.73h-2.48v-5.88Zm3.13,0h1.06v5.88h-1.06v-5.88Zm1.96,0h.75l1.43,3.35v-3.35h.89v5.88h-.71l-1.44-3.51v3.51h-.91v-5.88Zm4.23,5.44c-.24-.35-.37-.85-.37-1.5v-1.97c0-.67.12-1.18.38-1.52.25-.34.68-.51,1.3-.51.58,0,1,.14,1.25.43.25.29.38.71.38,1.28v.3h-1.02v-.33c0-.21-.01-.38-.04-.51s-.08-.22-.17-.29-.21-.1-.38-.1c-.18,0-.31.04-.4.13s-.14.2-.17.33c-.03.14-.04.31-.04.53v2.46c0,.33.04.58.13.75.09.16.26.25.5.25s.41-.09.5-.26c.09-.17.14-.44.14-.78v-.55h-.63v-.67h1.6v2.98h-.7l-.07-.57c-.18.44-.51.65-.99.65-.56,0-.96-.17-1.2-.52Zm-25.78,3.06h.49v2.74h-.49v-2.74Zm.92,0h.35l.67,1.56v-1.56h.41v2.74h-.33l-.67-1.64v1.64h-.43v-2.74Zm1.84,0h.35l.67,1.56v-1.56h.41v2.74h-.33l-.67-1.64v1.64h-.43v-2.74Zm1.98,2.55c-.12-.15-.18-.38-.18-.67v-1.03c0-.29.06-.51.18-.66.12-.15.32-.22.61-.22s.48.07.61.22c.12.15.18.37.18.66v1.03c0,.29-.06.51-.18.67-.12.15-.32.23-.6.23s-.49-.08-.61-.23Zm.83-.25c.04-.07.06-.17.06-.3v-1.26c0-.13-.02-.23-.06-.3-.04-.07-.11-.1-.23-.1s-.19.03-.23.1c-.04.07-.06.17-.06.3v1.26c0,.13.02.23.06.3s.11.1.23.1.19-.03.22-.1Zm.79-2.3h.44l.36,1.94.34-1.94h.45l-.55,2.74h-.49l-.55-2.74Zm2.18,0h.53l.55,2.74h-.46l-.11-.63h-.48l-.11.63h-.47l.55-2.74Zm.46,1.79l-.19-1.15-.19,1.15h.37Zm1.05-1.42h-.44v-.37h1.36v.37h-.43v2.37h-.5v-2.37Zm1.19-.37h.49v2.74h-.49v-2.74Zm1.06,2.55c-.12-.15-.18-.38-.18-.67v-1.03c0-.29.06-.51.18-.66.12-.15.32-.22.61-.22s.48.07.61.22c.12.15.18.37.18.66v1.03c0,.29-.06.51-.18.67-.12.15-.33.23-.6.23s-.49-.08-.61-.23Zm.83-.25c.04-.07.06-.17.06-.3v-1.26c0-.13-.02-.23-.06-.3-.04-.07-.11-.1-.22-.1s-.19.03-.23.1c-.04.07-.06.17-.06.3v1.26c0,.13.02.23.06.3s.11.1.23.1.19-.03.22-.1Zm.93-2.3h.35l.67,1.56v-1.56h.41v2.74h-.33l-.67-1.64v1.64h-.43v-2.74Zm3.08,0h.53l.55,2.74h-.46l-.11-.63h-.48l-.11.63h-.47l.55-2.74Zm.46,1.79l-.19-1.15-.19,1.15h.37Zm.74-1.79h.42l.23,1.78.28-1.77h.34l.29,1.77.22-1.78h.41l-.38,2.74h-.41l-.3-1.84-.3,1.84h-.42l-.39-2.74Zm2.84,0h.53l.55,2.74h-.46l-.11-.63h-.48l-.11.63h-.47l.55-2.74Zm.46,1.79l-.19-1.15-.19,1.15h.37Zm.9-1.79h.66c.29,0,.5.05.65.16s.21.3.21.56c0,.17-.03.32-.08.42s-.14.19-.26.24l.38,1.35h-.5l-.33-1.26h-.24v1.26h-.5v-2.74Zm.66,1.17c.14,0,.24-.03.3-.1s.09-.17.09-.32-.03-.25-.08-.31-.15-.1-.29-.1h-.19v.83h.16Zm1.24-1.17h.65c.22,0,.4.03.52.09s.22.15.27.27c.05.12.08.29.08.49v1c0,.21-.03.38-.08.5-.05.13-.14.22-.27.29s-.29.1-.5.1h-.67v-2.74Zm.65,2.39c.11,0,.19-.02.24-.06s.08-.09.09-.16c.01-.07.02-.17.02-.31v-1.05c0-.12,0-.21-.02-.28-.02-.06-.05-.11-.1-.14s-.13-.05-.24-.05h-.15v2.04h.16Z"/>
</svg>